<?xml version="1.0" standalone="no"?><svg xmlns:xlink="http://www.w3.org/1999/xlink" xmlns="http://www.w3.org/2000/svg" viewBox="0 0 1000 583.3359683794466" preserveAspectRatio="xMaxYMax slice"><g transform="scale(1.2648221343873518)"><rect x="0" y="0" width="790.6285714285714" height="461.2" fill="#ffffff"/><rect x="0" y="0" width="65.89" height="65.89" fill="#9C0D38"/><path d="M 0 65.89 A 65.89 65.89 0 0 1  65.89 0 L 0 65.89 A 65.89 65.89 0 0 0 65.89 0" fill="#DDF0FF"/><rect x="65.89" y="0" width="65.89" height="65.89" fill="#DBBBF5"/><rect x="65.89" y="0" width="65.89" height="65.89" fill="#DDF0FF"/><rect x="131.77" y="0" width="65.89" height="65.89" fill="#CE5374"/><rect x="131.77" y="0" width="65.89" height="65.89" fill="#DDF0FF"/><rect x="197.65714285714284" y="0" width="65.88571428571429" height="65.88571428571429" fill="#ffffff"/><rect x="197.66" y="0" width="32.94" height="32.94" fill="#9C0D38"/><polygon points="230.6,0 230.6,32.94 197.66,32.94" fill="#9C0D38"/><rect x="230.6" y="0" width="32.94" height="32.94" fill="#c754cf"/><polygon points="230.6,0 263.53999999999996,0 230.6,32.94" fill="#c754cf"/><rect x="197.66" y="32.94" width="32.94" height="32.94" fill="#9C0D38"/><polygon points="197.66,32.94 230.6,32.94 230.6,65.88" fill="#CE5374"/><rect x="230.6" y="32.94" width="32.94" height="32.94" fill="#DDF0FF"/><polygon points="230.6,32.94 263.53999999999996,65.88 230.6,65.88" fill="#9C0D38"/><rect x="263.54285714285714" y="0" width="65.88571428571429" height="65.88571428571429" fill="#ffffff"/><rect x="263.54" y="0" width="32.94" height="32.94" fill="#c754cf"/><polygon points="296.48,0 296.48,32.94 263.54,32.94" fill="#CE5374"/><rect x="296.49" y="0" width="32.94" height="32.94" fill="#9C0D38"/><polygon points="296.49,0 329.43,0 296.49,32.94" fill="#c754cf"/><rect x="263.54" y="32.94" width="32.94" height="32.94" fill="#DDF0FF"/><polygon points="263.54,32.94 296.48,32.94 296.48,65.88" fill="#DBBBF5"/><rect x="296.49" y="32.94" width="32.94" height="32.94" fill="#c754cf"/><polygon points="296.49,32.94 329.43,65.88 296.49,65.88" fill="#c754cf"/><rect x="329.42857142857144" y="0" width="65.88571428571429" height="65.88571428571429" fill="#ffffff"/><rect x="329.43" y="0" width="32.94" height="32.94" fill="#DDF0FF"/><path d="M 329.43 32.94 A 32.94 32.94 0 0 1 362.37 0 L 362.37 8.235 A 24.705 24.705 0 0 0 337.665 32.94" fill="#DBBBF5"/><rect x="362.37" y="0" width="32.94" height="32.94" fill="#CE5374"/><path d="M 362.37 0 A 32.94 32.94 0 0 1 395.31 32.94 L 387.075 32.94 A 24.705 24.705 0 0 0 362.37 8.235" fill="#9C0D38"/><rect x="329.43" y="32.94" width="32.94" height="32.94" fill="#9C0D38"/><path d="M 329.43 32.94 A 32.94 32.94 0 0 0 362.37 65.88 L 362.37 57.644999999999996 A 24.705 24.705 0 0 1 337.665 32.94" fill="#c754cf"/><rect x="362.37" y="32.94" width="32.94" height="32.94" fill="#DDF0FF"/><path d="M 362.37 65.88 A 32.94 32.94 0 0 0 395.31 32.94 L 387.075 32.94 A 24.705 24.705 0 0 1 362.37 57.644999999999996" fill="#c754cf"/><rect x="395.3142857142857" y="0" width="65.88571428571429" height="65.88571428571429" fill="#ffffff"/><rect x="395.31" y="0" width="32.94" height="32.94" fill="#DDF0FF"/><polygon points="428.25,0 428.25,32.94 395.31,32.94" fill="#CE5374"/><rect x="428.26" y="0" width="32.94" height="32.94" fill="#c754cf"/><polygon points="428.26,0 461.2,32.94 428.26,32.94" fill="#DDF0FF"/><rect x="395.31" y="32.94" width="32.94" height="32.94" fill="#DDF0FF"/><polygon points="395.31,32.94 428.25,32.94 395.31,65.88" fill="#CE5374"/><rect x="428.26" y="32.94" width="32.94" height="32.94" fill="#CE5374"/><polygon points="428.26,32.94 461.2,32.94 461.2,65.88" fill="#9C0D38"/><rect x="461.2" y="0" width="65.88571428571429" height="65.88571428571429" fill="#ffffff"/><rect x="461.2" y="0" width="32.94" height="32.94" fill="#c754cf"/><path d="M 461.2 0 A 32.94 32.94 0 0 0 494.14 32.94 L 494.14 0" fill="#c754cf"/><rect x="494.14" y="0" width="32.94" height="32.94" fill="#c754cf"/><path d="M 494.14 32.94 A 32.94 32.94 0 0 0 527.0799999999999 0 L 494.14 0" fill="#9C0D38"/><rect x="461.2" y="32.94" width="32.94" height="32.94" fill="#c754cf"/><path d="M 461.2 65.88 A 32.94 32.94 0 0 1  494.14 32.94 L 494.14 65.88" fill="#DBBBF5"/><rect x="494.14" y="32.94" width="32.94" height="32.94" fill="#9C0D38"/><path d="M 494.14 32.94 A 32.94 32.94 0 0 1 527.0799999999999 65.88 L 494.14 65.88" fill="#CE5374"/><rect x="527.0857142857143" y="0" width="65.88571428571429" height="65.88571428571429" fill="#ffffff"/><rect x="527.09" y="0" width="32.94" height="32.94" fill="#DDF0FF"/><path d="M 527.09 32.94 A 32.94 32.94 0 0 0 560.03 0 L 527.09 0" fill="#CE5374"/><rect x="560.03" y="0" width="32.94" height="32.94" fill="#CE5374"/><path d="M 560.03 0 A 32.94 32.94 0 0 0 592.97 32.94 L 592.97 0" fill="#CE5374"/><rect x="527.09" y="32.94" width="32.94" height="32.94" fill="#c754cf"/><path d="M 527.09 32.94 A 32.94 32.94 0 0 1 560.03 65.88 L 527.09 65.88" fill="#c754cf"/><rect x="560.03" y="32.94" width="32.94" height="32.94" fill="#CE5374"/><path d="M 560.03 65.88 A 32.94 32.94 0 0 1  592.97 32.94 L 592.97 65.88" fill="#CE5374"/><rect x="592.97" y="0" width="65.89" height="65.89" fill="#DDF0FF"/><path d="M 592.97 0 A 65.89 65.89 0 0 1  658.86 65.89 L 592.97 0 A 65.89 65.89 0 0 0 658.86 65.89" fill="#DDF0FF"/><rect x="658.86" y="0" width="65.89" height="65.89" fill="#9C0D38"/><polygon points="658.86,0 724.75,0 658.86,65.89" fill="#c754cf"/><rect x="724.7428571428571" y="0" width="65.88571428571429" height="65.88571428571429" fill="#ffffff"/><rect x="724.74" y="0" width="32.94" height="32.94" fill="#CE5374"/><path d="M 724.74 32.94 A 32.94 32.94 0 0 1  757.6800000000001 0 L 757.6800000000001 32.94" fill="#c754cf"/><rect x="757.69" y="0" width="32.94" height="32.94" fill="#9C0D38"/><path d="M 757.69 0 A 32.94 32.94 0 0 1 790.6300000000001 32.94 L 757.69 32.94" fill="#c754cf"/><rect x="724.74" y="32.94" width="32.94" height="32.94" fill="#c754cf"/><path d="M 724.74 32.94 A 32.94 32.94 0 0 0 757.6800000000001 65.88 L 757.6800000000001 32.94" fill="#9C0D38"/><rect x="757.69" y="32.94" width="32.94" height="32.94" fill="#DDF0FF"/><path d="M 757.69 65.88 A 32.94 32.94 0 0 0 790.6300000000001 32.94 L 757.69 32.94" fill="#CE5374"/><rect x="0" y="65.89" width="65.89" height="65.89" fill="#DDF0FF"/><rect x="0" y="65.89" width="65.89" height="65.89" fill="#c754cf"/><rect x="65.89" y="65.89" width="65.89" height="65.89" fill="#DDF0FF"/><polygon points="65.89,65.89 131.78,65.89 65.89,131.78" fill="#c754cf"/><rect x="131.77142857142857" y="65.88571428571429" width="65.88571428571429" height="65.88571428571429" fill="#ffffff"/><rect x="131.77" y="65.89" width="32.94" height="32.94" fill="#DDF0FF"/><path d="M 131.77 98.83 A 32.94 32.94 0 0 0 164.71 65.89 L 131.77 65.89" fill="#9C0D38"/><rect x="164.71" y="65.89" width="32.94" height="32.94" fill="#9C0D38"/><path d="M 164.71 65.89 A 32.94 32.94 0 0 0 197.65 98.83 L 197.65 65.89" fill="#DDF0FF"/><rect x="131.77" y="98.83" width="32.94" height="32.94" fill="#DBBBF5"/><path d="M 131.77 98.83 A 32.94 32.94 0 0 1 164.71 131.76999999999998 L 131.77 131.76999999999998" fill="#CE5374"/><rect x="164.71" y="98.83" width="32.94" height="32.94" fill="#9C0D38"/><path d="M 164.71 131.76999999999998 A 32.94 32.94 0 0 1  197.65 98.83 L 197.65 131.76999999999998" fill="#CE5374"/><rect x="197.66" y="65.89" width="65.89" height="65.89" fill="#DDF0FF"/><path d="M 197.66 131.78 A 65.89 65.89 0 0 1  263.55 65.89 L 197.66 131.78 A 65.89 65.89 0 0 0 263.55 65.89" fill="#9C0D38"/><rect x="263.54285714285714" y="65.88571428571429" width="65.88571428571429" height="65.88571428571429" fill="#ffffff"/><rect x="263.54" y="65.89" width="32.94" height="32.94" fill="#DDF0FF"/><circle cx="280.01" cy="82.36" r="16.47" fill="#9C0D38"/><rect x="296.49" y="65.89" width="32.94" height="32.94" fill="#DDF0FF"/><rect x="296.49" y="65.89" width="32.94" height="32.94" fill="#DDF0FF"/><rect x="263.54" y="98.83" width="32.94" height="32.94" fill="#9C0D38"/><circle cx="280.01" cy="115.3" r="16.47" fill="#9C0D38"/><rect x="296.49" y="98.83" width="32.94" height="32.94" fill="#CE5374"/><rect x="296.49" y="98.83" width="32.94" height="32.94" fill="#DBBBF5"/><rect x="329.42857142857144" y="65.88571428571429" width="65.88571428571429" height="65.88571428571429" fill="#ffffff"/><rect x="329.43" y="65.89" width="32.94" height="32.94" fill="#CE5374"/><path d="M 329.43 65.89 A 32.94 32.94 0 0 0 362.37 98.83 L 362.37 65.89" fill="#DDF0FF"/><rect x="362.37" y="65.89" width="32.94" height="32.94" fill="#9C0D38"/><path d="M 362.37 98.83 A 32.94 32.94 0 0 0 395.31 65.89 L 362.37 65.89" fill="#DBBBF5"/><rect x="329.43" y="98.83" width="32.94" height="32.94" fill="#9C0D38"/><path d="M 329.43 131.76999999999998 A 32.94 32.94 0 0 1  362.37 98.83 L 362.37 131.76999999999998" fill="#CE5374"/><rect x="362.37" y="98.83" width="32.94" height="32.94" fill="#DBBBF5"/><path d="M 362.37 98.83 A 32.94 32.94 0 0 1 395.31 131.76999999999998 L 362.37 131.76999999999998" fill="#c754cf"/><rect x="395.31" y="65.89" width="65.89" height="65.89" fill="#c754cf"/><path d="M 395.31 65.89 A 65.89 65.89 0 0 1  461.2 131.78 L 395.31 65.89 A 65.89 65.89 0 0 0 461.2 131.78" fill="#c754cf"/><rect x="461.2" y="65.88571428571429" width="65.88571428571429" height="65.88571428571429" fill="#ffffff"/><rect x="461.2" y="65.89" width="32.94" height="32.94" fill="#CE5374"/><polygon points="494.14,65.89 494.14,98.83 461.2,98.83" fill="#c754cf"/><rect x="494.14" y="65.89" width="32.94" height="32.94" fill="#DBBBF5"/><polygon points="494.14,65.89 527.0799999999999,65.89 494.14,98.83" fill="#DBBBF5"/><rect x="461.2" y="98.83" width="32.94" height="32.94" fill="#CE5374"/><polygon points="461.2,98.83 494.14,98.83 494.14,131.76999999999998" fill="#9C0D38"/><rect x="494.14" y="98.83" width="32.94" height="32.94" fill="#CE5374"/><polygon points="494.14,98.83 527.0799999999999,131.76999999999998 494.14,131.76999999999998" fill="#CE5374"/><rect x="527.0857142857143" y="65.88571428571429" width="65.88571428571429" height="65.88571428571429" fill="#ffffff"/><rect x="527.09" y="65.89" width="32.94" height="32.94" fill="#c754cf"/><polygon points="560.03,65.89 560.03,98.83 527.09,98.83" fill="#DBBBF5"/><rect x="560.03" y="65.89" width="32.94" height="32.94" fill="#DBBBF5"/><polygon points="560.03,65.89 592.97,98.83 560.03,98.83" fill="#DDF0FF"/><rect x="527.09" y="98.83" width="32.94" height="32.94" fill="#9C0D38"/><polygon points="527.09,98.83 560.03,98.83 560.03,131.76999999999998" fill="#9C0D38"/><rect x="560.03" y="98.83" width="32.94" height="32.94" fill="#DBBBF5"/><polygon points="560.03,98.83 592.97,98.83 560.03,131.76999999999998" fill="#9C0D38"/><rect x="592.9714285714285" y="65.88571428571429" width="65.88571428571429" height="65.88571428571429" fill="#ffffff"/><rect x="592.97" y="65.89" width="32.94" height="32.94" fill="#DDF0FF"/><path d="M 592.97 98.83 A 32.94 32.94 0 0 1  625.9100000000001 65.89 L 625.9100000000001 98.83" fill="#CE5374"/><rect x="625.91" y="65.89" width="32.94" height="32.94" fill="#c754cf"/><path d="M 625.91 65.89 A 32.94 32.94 0 0 1 658.8499999999999 98.83 L 625.91 98.83" fill="#9C0D38"/><rect x="592.97" y="98.83" width="32.94" height="32.94" fill="#9C0D38"/><path d="M 592.97 98.83 A 32.94 32.94 0 0 0 625.9100000000001 131.76999999999998 L 625.9100000000001 98.83" fill="#9C0D38"/><rect x="625.91" y="98.83" width="32.94" height="32.94" fill="#CE5374"/><path d="M 625.91 131.76999999999998 A 32.94 32.94 0 0 0 658.8499999999999 98.83 L 625.91 98.83" fill="#CE5374"/><rect x="658.86" y="65.89" width="65.89" height="65.89" fill="#CE5374"/><rect x="658.86" y="65.89" width="65.89" height="65.89" fill="#c754cf"/><rect x="724.7428571428571" y="65.88571428571429" width="65.88571428571429" height="65.88571428571429" fill="#ffffff"/><rect x="724.74" y="65.89" width="32.94" height="32.94" fill="#DDF0FF"/><path d="M 724.74 98.83 A 32.94 32.94 0 0 0 757.6800000000001 65.89 L 724.74 65.89" fill="#9C0D38"/><rect x="757.69" y="65.89" width="32.94" height="32.94" fill="#CE5374"/><path d="M 757.69 65.89 A 32.94 32.94 0 0 0 790.6300000000001 98.83 L 790.6300000000001 65.89" fill="#9C0D38"/><rect x="724.74" y="98.83" width="32.94" height="32.94" fill="#c754cf"/><path d="M 724.74 98.83 A 32.94 32.94 0 0 1 757.6800000000001 131.76999999999998 L 724.74 131.76999999999998" fill="#9C0D38"/><rect x="757.69" y="98.83" width="32.94" height="32.94" fill="#c754cf"/><path d="M 757.69 131.76999999999998 A 32.94 32.94 0 0 1  790.6300000000001 98.83 L 790.6300000000001 131.76999999999998" fill="#DBBBF5"/><rect x="0" y="131.77142857142857" width="65.88571428571429" height="65.88571428571429" fill="#ffffff"/><rect x="0" y="131.77" width="32.94" height="32.94" fill="#9C0D38"/><path d="M 0 131.77 A 32.94 32.94 0 0 1 32.94 164.71 L 0 164.71" fill="#DBBBF5"/><rect x="32.94" y="131.77" width="32.94" height="32.94" fill="#CE5374"/><path d="M 32.94 164.71 A 32.94 32.94 0 0 1  65.88 131.77 L 65.88 164.71" fill="#9C0D38"/><rect x="0" y="164.71" width="32.94" height="32.94" fill="#DDF0FF"/><path d="M 0 197.65 A 32.94 32.94 0 0 0 32.94 164.71 L 0 164.71" fill="#c754cf"/><rect x="32.94" y="164.71" width="32.94" height="32.94" fill="#DBBBF5"/><path d="M 32.94 164.71 A 32.94 32.94 0 0 0 65.88 197.65 L 65.88 164.71" fill="#c754cf"/><rect x="65.88571428571429" y="131.77142857142857" width="65.88571428571429" height="65.88571428571429" fill="#ffffff"/><rect x="65.89" y="131.77" width="32.94" height="32.94" fill="#c754cf"/><path d="M 65.89 131.77 A 32.94 32.94 0 0 1 98.83 164.71 L 65.89 164.71" fill="#DDF0FF"/><rect x="98.83" y="131.77" width="32.94" height="32.94" fill="#CE5374"/><path d="M 98.83 164.71 A 32.94 32.94 0 0 1  131.76999999999998 131.77 L 131.76999999999998 164.71" fill="#9C0D38"/><rect x="65.89" y="164.71" width="32.94" height="32.94" fill="#DDF0FF"/><path d="M 65.89 197.65 A 32.94 32.94 0 0 0 98.83 164.71 L 65.89 164.71" fill="#DDF0FF"/><rect x="98.83" y="164.71" width="32.94" height="32.94" fill="#c754cf"/><path d="M 98.83 164.71 A 32.94 32.94 0 0 0 131.76999999999998 197.65 L 131.76999999999998 164.71" fill="#DBBBF5"/><rect x="131.77" y="131.77" width="65.89" height="65.89" fill="#c754cf"/><rect x="131.77" y="131.77" width="65.89" height="65.89" fill="#DBBBF5"/><rect x="197.66" y="131.77" width="65.89" height="65.89" fill="#9C0D38"/><path d="M 197.66 197.66000000000003 A 65.89 65.89 0 0 1  263.55 131.77 L 263.55 197.66000000000003" fill="#DDF0FF"/><rect x="263.54285714285714" y="131.77142857142857" width="65.88571428571429" height="65.88571428571429" fill="#ffffff"/><rect x="263.54" y="131.77" width="32.94" height="32.94" fill="#DBBBF5"/><circle cx="280.01" cy="148.24" r="16.47" fill="#9C0D38"/><rect x="296.49" y="131.77" width="32.94" height="32.94" fill="#CE5374"/><rect x="296.49" y="131.77" width="32.94" height="32.94" fill="#DBBBF5"/><rect x="263.54" y="164.71" width="32.94" height="32.94" fill="#9C0D38"/><circle cx="280.01" cy="181.18" r="16.47" fill="#DDF0FF"/><rect x="296.49" y="164.71" width="32.94" height="32.94" fill="#DDF0FF"/><rect x="296.49" y="164.71" width="32.94" height="32.94" fill="#DDF0FF"/><rect x="329.43" y="131.77" width="65.89" height="65.89" fill="#c754cf"/><path d="M 329.43 131.77 A 65.89 65.89 0 0 1  395.32 197.66000000000003 L 329.43 131.77 A 65.89 65.89 0 0 0 395.32 197.66000000000003" fill="#DDF0FF"/><rect x="395.31" y="131.77" width="65.89" height="65.89" fill="#9C0D38"/><rect x="395.31" y="131.77" width="65.89" height="65.89" fill="#CE5374"/><rect x="461.2" y="131.77" width="65.89" height="65.89" fill="#CE5374"/><path d="M 461.2 197.66000000000003 A 65.89 65.89 0 0 1  527.09 131.77 L 527.09 197.66000000000003" fill="#CE5374"/><rect x="527.09" y="131.77" width="65.89" height="65.89" fill="#9C0D38"/><path d="M 527.09 197.66000000000003 A 65.89 65.89 0 0 0 592.98 131.77 L 527.09 131.77" fill="#c754cf"/><rect x="592.97" y="131.77" width="65.89" height="65.89" fill="#9C0D38"/><rect x="592.97" y="131.77" width="65.89" height="65.89" fill="#c754cf"/><rect x="658.8571428571429" y="131.77142857142857" width="65.88571428571429" height="65.88571428571429" fill="#ffffff"/><rect x="658.86" y="131.77" width="32.94" height="32.94" fill="#9C0D38"/><path d="M 658.86 164.71 A 32.94 32.94 0 0 0 691.8 131.77 L 658.86 131.77" fill="#c754cf"/><rect x="691.8" y="131.77" width="32.94" height="32.94" fill="#9C0D38"/><path d="M 691.8 131.77 A 32.94 32.94 0 0 0 724.74 164.71 L 724.74 131.77" fill="#DBBBF5"/><rect x="658.86" y="164.71" width="32.94" height="32.94" fill="#DDF0FF"/><path d="M 658.86 164.71 A 32.94 32.94 0 0 1 691.8 197.65 L 658.86 197.65" fill="#DBBBF5"/><rect x="691.8" y="164.71" width="32.94" height="32.94" fill="#CE5374"/><path d="M 691.8 197.65 A 32.94 32.94 0 0 1  724.74 164.71 L 724.74 197.65" fill="#c754cf"/><rect x="724.7428571428571" y="131.77142857142857" width="65.88571428571429" height="65.88571428571429" fill="#ffffff"/><rect x="724.74" y="131.77" width="32.94" height="32.94" fill="#c754cf"/><path d="M 724.74 164.71 A 32.94 32.94 0 0 0 757.6800000000001 131.77 L 724.74 131.77" fill="#c754cf"/><rect x="757.69" y="131.77" width="32.94" height="32.94" fill="#9C0D38"/><path d="M 757.69 131.77 A 32.94 32.94 0 0 0 790.6300000000001 164.71 L 790.6300000000001 131.77" fill="#DDF0FF"/><rect x="724.74" y="164.71" width="32.94" height="32.94" fill="#9C0D38"/><path d="M 724.74 164.71 A 32.94 32.94 0 0 1 757.6800000000001 197.65 L 724.74 197.65" fill="#DBBBF5"/><rect x="757.69" y="164.71" width="32.94" height="32.94" fill="#c754cf"/><path d="M 757.69 197.65 A 32.94 32.94 0 0 1  790.6300000000001 164.71 L 790.6300000000001 197.65" fill="#CE5374"/><rect x="0" y="197.65714285714284" width="65.88571428571429" height="65.88571428571429" fill="#ffffff"/><rect x="0" y="197.66" width="32.94" height="32.94" fill="#9C0D38"/><path d="M 0 230.6 A 32.94 32.94 0 0 1 32.94 197.66 L 32.94 205.89499999999998 A 24.705 24.705 0 0 0 8.235 230.6" fill="#CE5374"/><rect x="32.94" y="197.66" width="32.94" height="32.94" fill="#CE5374"/><path d="M 32.94 197.66 A 32.94 32.94 0 0 1 65.88 230.6 L 57.644999999999996 230.6 A 24.705 24.705 0 0 0 32.94 205.89499999999998" fill="#DBBBF5"/><rect x="0" y="230.6" width="32.94" height="32.94" fill="#DBBBF5"/><path d="M 0 230.6 A 32.94 32.94 0 0 0 32.94 263.53999999999996 L 32.94 255.305 A 24.705 24.705 0 0 1 8.235 230.6" fill="#DDF0FF"/><rect x="32.94" y="230.6" width="32.94" height="32.94" fill="#DBBBF5"/><path d="M 32.94 263.53999999999996 A 32.94 32.94 0 0 0 65.88 230.6 L 57.644999999999996 230.6 A 24.705 24.705 0 0 1 32.94 255.305" fill="#DBBBF5"/><rect x="65.88571428571429" y="197.65714285714284" width="65.88571428571429" height="65.88571428571429" fill="#ffffff"/><rect x="65.89" y="197.66" width="32.94" height="32.94" fill="#9C0D38"/><circle cx="82.36" cy="214.13" r="16.47" fill="#CE5374"/><rect x="98.83" y="197.66" width="32.94" height="32.94" fill="#CE5374"/><rect x="98.83" y="197.66" width="32.94" height="32.94" fill="#CE5374"/><rect x="65.89" y="230.6" width="32.94" height="32.94" fill="#CE5374"/><circle cx="82.36" cy="247.07" r="16.47" fill="#DDF0FF"/><rect x="98.83" y="230.6" width="32.94" height="32.94" fill="#c754cf"/><rect x="98.83" y="230.6" width="32.94" height="32.94" fill="#9C0D38"/><rect x="131.77142857142857" y="197.65714285714284" width="65.88571428571429" height="65.88571428571429" fill="#ffffff"/><rect x="131.77" y="197.66" width="32.94" height="32.94" fill="#9C0D38"/><path d="M 131.77 197.66 A 32.94 32.94 0 0 0 164.71 230.6 L 164.71 197.66" fill="#c754cf"/><rect x="164.71" y="197.66" width="32.94" height="32.94" fill="#c754cf"/><path d="M 164.71 230.6 A 32.94 32.94 0 0 0 197.65 197.66 L 164.71 197.66" fill="#DBBBF5"/><rect x="131.77" y="230.6" width="32.94" height="32.94" fill="#c754cf"/><path d="M 131.77 263.53999999999996 A 32.94 32.94 0 0 1  164.71 230.6 L 164.71 263.53999999999996" fill="#DDF0FF"/><rect x="164.71" y="230.6" width="32.94" height="32.94" fill="#c754cf"/><path d="M 164.71 230.6 A 32.94 32.94 0 0 1 197.65 263.53999999999996 L 164.71 263.53999999999996" fill="#DDF0FF"/><rect x="197.66" y="197.66" width="65.89" height="65.89" fill="#DDF0FF"/><rect x="197.66" y="197.66" width="65.89" height="65.89" fill="#CE5374"/><rect x="263.54" y="197.66" width="65.89" height="65.89" fill="#CE5374"/><path d="M 263.54 197.66 A 65.89 65.89 0 0 1  329.43 263.55 L 263.54 197.66 A 65.89 65.89 0 0 0 329.43 263.55" fill="#9C0D38"/><rect x="329.42857142857144" y="197.65714285714284" width="65.88571428571429" height="65.88571428571429" fill="#ffffff"/><rect x="329.43" y="197.66" width="32.94" height="32.94" fill="#CE5374"/><polygon points="362.37,197.66 362.37,230.6 329.43,230.6" fill="#9C0D38"/><rect x="362.37" y="197.66" width="32.94" height="32.94" fill="#DBBBF5"/><polygon points="362.37,197.66 395.31,230.6 362.37,230.6" fill="#9C0D38"/><rect x="329.43" y="230.6" width="32.94" height="32.94" fill="#DDF0FF"/><polygon points="329.43,230.6 362.37,230.6 329.43,263.53999999999996" fill="#CE5374"/><rect x="362.37" y="230.6" width="32.94" height="32.94" fill="#CE5374"/><polygon points="362.37,230.6 395.31,230.6 395.31,263.53999999999996" fill="#9C0D38"/><rect x="395.3142857142857" y="197.65714285714284" width="65.88571428571429" height="65.88571428571429" fill="#ffffff"/><rect x="395.31" y="197.66" width="32.94" height="32.94" fill="#9C0D38"/><path d="M 395.31 230.6 A 32.94 32.94 0 0 0 428.25 197.66 L 395.31 197.66" fill="#DDF0FF"/><rect x="428.26" y="197.66" width="32.94" height="32.94" fill="#9C0D38"/><path d="M 428.26 197.66 A 32.94 32.94 0 0 0 461.2 230.6 L 461.2 197.66" fill="#CE5374"/><rect x="395.31" y="230.6" width="32.94" height="32.94" fill="#CE5374"/><path d="M 395.31 230.6 A 32.94 32.94 0 0 1 428.25 263.53999999999996 L 395.31 263.53999999999996" fill="#c754cf"/><rect x="428.26" y="230.6" width="32.94" height="32.94" fill="#DDF0FF"/><path d="M 428.26 263.53999999999996 A 32.94 32.94 0 0 1  461.2 230.6 L 461.2 263.53999999999996" fill="#DDF0FF"/><rect x="461.2" y="197.66" width="65.89" height="65.89" fill="#9C0D38"/><path d="M 461.2 197.66 A 65.89 65.89 0 0 1 527.09 263.55 L 461.2 263.55" fill="#c754cf"/><rect x="527.09" y="197.66" width="65.89" height="65.89" fill="#DBBBF5"/><rect x="527.09" y="197.66" width="65.89" height="65.89" fill="#9C0D38"/><rect x="592.97" y="197.66" width="65.89" height="65.89" fill="#c754cf"/><rect x="592.97" y="197.66" width="65.89" height="65.89" fill="#DBBBF5"/><rect x="658.8571428571429" y="197.65714285714284" width="65.88571428571429" height="65.88571428571429" fill="#ffffff"/><rect x="658.86" y="197.66" width="32.94" height="32.94" fill="#c754cf"/><path d="M 658.86 230.6 A 32.94 32.94 0 0 0 691.8 197.66 L 658.86 197.66" fill="#CE5374"/><rect x="691.8" y="197.66" width="32.94" height="32.94" fill="#DBBBF5"/><path d="M 691.8 197.66 A 32.94 32.94 0 0 0 724.74 230.6 L 724.74 197.66" fill="#CE5374"/><rect x="658.86" y="230.6" width="32.94" height="32.94" fill="#9C0D38"/><path d="M 658.86 230.6 A 32.94 32.94 0 0 1 691.8 263.53999999999996 L 658.86 263.53999999999996" fill="#DBBBF5"/><rect x="691.8" y="230.6" width="32.94" height="32.94" fill="#DDF0FF"/><path d="M 691.8 263.53999999999996 A 32.94 32.94 0 0 1  724.74 230.6 L 724.74 263.53999999999996" fill="#DDF0FF"/><rect x="724.7428571428571" y="197.65714285714284" width="65.88571428571429" height="65.88571428571429" fill="#ffffff"/><rect x="724.74" y="197.66" width="32.94" height="32.94" fill="#DDF0FF"/><path d="M 724.74 230.6 A 32.94 32.94 0 0 1  757.6800000000001 197.66 L 757.6800000000001 230.6" fill="#DDF0FF"/><rect x="757.69" y="197.66" width="32.94" height="32.94" fill="#DDF0FF"/><path d="M 757.69 197.66 A 32.94 32.94 0 0 1 790.6300000000001 230.6 L 757.69 230.6" fill="#DDF0FF"/><rect x="724.74" y="230.6" width="32.94" height="32.94" fill="#DDF0FF"/><path d="M 724.74 230.6 A 32.94 32.94 0 0 0 757.6800000000001 263.53999999999996 L 757.6800000000001 230.6" fill="#9C0D38"/><rect x="757.69" y="230.6" width="32.94" height="32.94" fill="#c754cf"/><path d="M 757.69 263.53999999999996 A 32.94 32.94 0 0 0 790.6300000000001 230.6 L 757.69 230.6" fill="#DDF0FF"/><rect x="0" y="263.54" width="65.89" height="65.89" fill="#9C0D38"/><rect x="0" y="263.54" width="65.89" height="65.89" fill="#9C0D38"/><rect x="65.88571428571429" y="263.54285714285714" width="65.88571428571429" height="65.88571428571429" fill="#ffffff"/><rect x="65.89" y="263.54" width="32.94" height="32.94" fill="#9C0D38"/><path d="M 65.89 263.54 A 32.94 32.94 0 0 0 98.83 296.48 L 98.83 263.54" fill="#c754cf"/><rect x="98.83" y="263.54" width="32.94" height="32.94" fill="#9C0D38"/><path d="M 98.83 296.48 A 32.94 32.94 0 0 0 131.76999999999998 263.54 L 98.83 263.54" fill="#DDF0FF"/><rect x="65.89" y="296.49" width="32.94" height="32.94" fill="#CE5374"/><path d="M 65.89 329.43 A 32.94 32.94 0 0 1  98.83 296.49 L 98.83 329.43" fill="#DDF0FF"/><rect x="98.83" y="296.49" width="32.94" height="32.94" fill="#DBBBF5"/><path d="M 98.83 296.49 A 32.94 32.94 0 0 1 131.76999999999998 329.43 L 98.83 329.43" fill="#DBBBF5"/><rect x="131.77" y="263.54" width="65.89" height="65.89" fill="#DBBBF5"/><rect x="131.77" y="263.54" width="65.89" height="65.89" fill="#DBBBF5"/><rect x="197.66" y="263.54" width="65.89" height="65.89" fill="#9C0D38"/><rect x="197.66" y="263.54" width="65.89" height="65.89" fill="#c754cf"/><rect x="263.54285714285714" y="263.54285714285714" width="65.88571428571429" height="65.88571428571429" fill="#ffffff"/><rect x="263.54" y="263.54" width="32.94" height="32.94" fill="#c754cf"/><path d="M 263.54 296.48 A 32.94 32.94 0 0 0 296.48 263.54 L 263.54 263.54" fill="#DDF0FF"/><rect x="296.49" y="263.54" width="32.94" height="32.94" fill="#c754cf"/><path d="M 296.49 263.54 A 32.94 32.94 0 0 0 329.43 296.48 L 329.43 263.54" fill="#DBBBF5"/><rect x="263.54" y="296.49" width="32.94" height="32.94" fill="#9C0D38"/><path d="M 263.54 296.49 A 32.94 32.94 0 0 1 296.48 329.43 L 263.54 329.43" fill="#c754cf"/><rect x="296.49" y="296.49" width="32.94" height="32.94" fill="#DBBBF5"/><path d="M 296.49 329.43 A 32.94 32.94 0 0 1  329.43 296.49 L 329.43 329.43" fill="#CE5374"/><rect x="329.43" y="263.54" width="65.89" height="65.89" fill="#c754cf"/><polygon points="329.43,263.54 395.32,329.43 329.43,329.43" fill="#9C0D38"/><rect x="395.31" y="263.54" width="65.89" height="65.89" fill="#DBBBF5"/><path d="M 395.31 329.43 A 65.89 65.89 0 0 1  461.2 263.54 L 395.31 329.43 A 65.89 65.89 0 0 0 461.2 263.54" fill="#DDF0FF"/><rect x="461.2" y="263.54" width="65.89" height="65.89" fill="#DDF0FF"/><polygon points="461.2,263.54 527.09,329.43 461.2,329.43" fill="#9C0D38"/><rect x="527.09" y="263.54" width="65.89" height="65.89" fill="#c754cf"/><path d="M 527.09 329.43 A 65.89 65.89 0 0 1  592.98 263.54 L 592.98 329.43" fill="#9C0D38"/><rect x="592.97" y="263.54" width="65.89" height="65.89" fill="#DDF0FF"/><path d="M 592.97 263.54 A 65.89 65.89 0 0 1  658.86 329.43 L 592.97 263.54 A 65.89 65.89 0 0 0 658.86 329.43" fill="#DDF0FF"/><rect x="658.86" y="263.54" width="65.89" height="65.89" fill="#CE5374"/><polygon points="658.86,263.54 724.75,329.43 658.86,329.43" fill="#CE5374"/><rect x="724.74" y="263.54" width="65.89" height="65.89" fill="#c754cf"/><polygon points="724.74,263.54 790.63,263.54 790.63,329.43" fill="#DDF0FF"/><rect x="0" y="329.43" width="65.89" height="65.89" fill="#c754cf"/><polygon points="0,329.43 65.89,329.43 65.89,395.32" fill="#DDF0FF"/><rect x="65.88571428571429" y="329.42857142857144" width="65.88571428571429" height="65.88571428571429" fill="#ffffff"/><rect x="65.89" y="329.43" width="32.94" height="32.94" fill="#DDF0FF"/><path d="M 65.89 329.43 A 32.94 32.94 0 0 0 98.83 362.37 L 98.83 329.43" fill="#DDF0FF"/><rect x="98.83" y="329.43" width="32.94" height="32.94" fill="#CE5374"/><path d="M 98.83 362.37 A 32.94 32.94 0 0 0 131.76999999999998 329.43 L 98.83 329.43" fill="#DBBBF5"/><rect x="65.89" y="362.37" width="32.94" height="32.94" fill="#9C0D38"/><path d="M 65.89 395.31 A 32.94 32.94 0 0 1  98.83 362.37 L 98.83 395.31" fill="#DBBBF5"/><rect x="98.83" y="362.37" width="32.94" height="32.94" fill="#DBBBF5"/><path d="M 98.83 362.37 A 32.94 32.94 0 0 1 131.76999999999998 395.31 L 98.83 395.31" fill="#c754cf"/><rect x="131.77" y="329.43" width="65.89" height="65.89" fill="#DBBBF5"/><polygon points="131.77,329.43 197.66000000000003,329.43 197.66000000000003,395.32" fill="#9C0D38"/><rect x="197.66" y="329.43" width="65.89" height="65.89" fill="#CE5374"/><polygon points="197.66,329.43 263.55,329.43 197.66,395.32" fill="#CE5374"/><rect x="263.54285714285714" y="329.42857142857144" width="65.88571428571429" height="65.88571428571429" fill="#ffffff"/><rect x="263.54" y="329.43" width="32.94" height="32.94" fill="#9C0D38"/><polygon points="296.48,329.43 296.48,362.37 263.54,362.37" fill="#CE5374"/><rect x="296.49" y="329.43" width="32.94" height="32.94" fill="#CE5374"/><polygon points="296.49,329.43 329.43,362.37 296.49,362.37" fill="#DDF0FF"/><rect x="263.54" y="362.37" width="32.94" height="32.94" fill="#9C0D38"/><polygon points="263.54,362.37 296.48,362.37 296.48,395.31" fill="#CE5374"/><rect x="296.49" y="362.37" width="32.94" height="32.94" fill="#DBBBF5"/><polygon points="296.49,362.37 329.43,362.37 296.49,395.31" fill="#DBBBF5"/><rect x="329.42857142857144" y="329.42857142857144" width="65.88571428571429" height="65.88571428571429" fill="#ffffff"/><rect x="329.43" y="329.43" width="32.94" height="32.94" fill="#9C0D38"/><polygon points="362.37,329.43 362.37,362.37 329.43,362.37" fill="#DDF0FF"/><rect x="362.37" y="329.43" width="32.94" height="32.94" fill="#DBBBF5"/><polygon points="362.37,329.43 395.31,329.43 362.37,362.37" fill="#c754cf"/><rect x="329.43" y="362.37" width="32.94" height="32.94" fill="#DBBBF5"/><polygon points="329.43,362.37 362.37,362.37 362.37,395.31" fill="#DBBBF5"/><rect x="362.37" y="362.37" width="32.94" height="32.94" fill="#DDF0FF"/><polygon points="362.37,362.37 395.31,395.31 362.37,395.31" fill="#9C0D38"/><rect x="395.31" y="329.43" width="65.89" height="65.89" fill="#CE5374"/><path d="M 395.31 395.32 A 65.89 65.89 0 0 1  461.2 329.43 L 395.31 395.32 A 65.89 65.89 0 0 0 461.2 329.43" fill="#DDF0FF"/><rect x="461.2" y="329.43" width="65.89" height="65.89" fill="#9C0D38"/><path d="M 461.2 395.32 A 65.89 65.89 0 0 1  527.09 329.43 L 527.09 395.32" fill="#CE5374"/><rect x="527.09" y="329.43" width="65.89" height="65.89" fill="#CE5374"/><rect x="527.09" y="329.43" width="65.89" height="65.89" fill="#CE5374"/><rect x="592.97" y="329.43" width="65.89" height="65.89" fill="#DBBBF5"/><polygon points="592.97,329.43 658.86,329.43 658.86,395.32" fill="#DBBBF5"/><rect x="658.8571428571429" y="329.42857142857144" width="65.88571428571429" height="65.88571428571429" fill="#ffffff"/><rect x="658.86" y="329.43" width="32.94" height="32.94" fill="#DBBBF5"/><path d="M 658.86 329.43 A 32.94 32.94 0 0 1 691.8 362.37 L 658.86 362.37" fill="#c754cf"/><rect x="691.8" y="329.43" width="32.94" height="32.94" fill="#DBBBF5"/><path d="M 691.8 362.37 A 32.94 32.94 0 0 1  724.74 329.43 L 724.74 362.37" fill="#c754cf"/><rect x="658.86" y="362.37" width="32.94" height="32.94" fill="#DBBBF5"/><path d="M 658.86 395.31 A 32.94 32.94 0 0 0 691.8 362.37 L 658.86 362.37" fill="#9C0D38"/><rect x="691.8" y="362.37" width="32.94" height="32.94" fill="#DBBBF5"/><path d="M 691.8 362.37 A 32.94 32.94 0 0 0 724.74 395.31 L 724.74 362.37" fill="#DDF0FF"/><rect x="724.7428571428571" y="329.42857142857144" width="65.88571428571429" height="65.88571428571429" fill="#ffffff"/><rect x="724.74" y="329.43" width="32.94" height="32.94" fill="#CE5374"/><polygon points="757.6800000000001,329.43 757.6800000000001,362.37 724.74,362.37" fill="#CE5374"/><rect x="757.69" y="329.43" width="32.94" height="32.94" fill="#9C0D38"/><polygon points="757.69,329.43 790.6300000000001,362.37 757.69,362.37" fill="#DBBBF5"/><rect x="724.74" y="362.37" width="32.94" height="32.94" fill="#c754cf"/><polygon points="724.74,362.37 757.6800000000001,362.37 724.74,395.31" fill="#c754cf"/><rect x="757.69" y="362.37" width="32.94" height="32.94" fill="#c754cf"/><polygon points="757.69,362.37 790.6300000000001,362.37 790.6300000000001,395.31" fill="#DDF0FF"/><rect x="0" y="395.3142857142857" width="65.88571428571429" height="65.88571428571429" fill="#ffffff"/><rect x="0" y="395.31" width="32.94" height="32.94" fill="#DBBBF5"/><path d="M 0 428.25 A 32.94 32.94 0 0 0 32.94 395.31 L 0 395.31" fill="#DBBBF5"/><rect x="32.94" y="395.31" width="32.94" height="32.94" fill="#DBBBF5"/><path d="M 32.94 395.31 A 32.94 32.94 0 0 0 65.88 428.25 L 65.88 395.31" fill="#DDF0FF"/><rect x="0" y="428.26" width="32.94" height="32.94" fill="#DBBBF5"/><path d="M 0 428.26 A 32.94 32.94 0 0 1 32.94 461.2 L 0 461.2" fill="#c754cf"/><rect x="32.94" y="428.26" width="32.94" height="32.94" fill="#9C0D38"/><path d="M 32.94 461.2 A 32.94 32.94 0 0 1  65.88 428.26 L 65.88 461.2" fill="#DDF0FF"/><rect x="65.88571428571429" y="395.3142857142857" width="65.88571428571429" height="65.88571428571429" fill="#ffffff"/><rect x="65.89" y="395.31" width="32.94" height="32.94" fill="#DBBBF5"/><polygon points="98.83,395.31 98.83,428.25 65.89,428.25" fill="#c754cf"/><rect x="98.83" y="395.31" width="32.94" height="32.94" fill="#DDF0FF"/><polygon points="98.83,395.31 131.76999999999998,428.25 98.83,428.25" fill="#DBBBF5"/><rect x="65.89" y="428.26" width="32.94" height="32.94" fill="#DDF0FF"/><polygon points="65.89,428.26 98.83,428.26 65.89,461.2" fill="#DDF0FF"/><rect x="98.83" y="428.26" width="32.94" height="32.94" fill="#9C0D38"/><polygon points="98.83,428.26 131.76999999999998,428.26 131.76999999999998,461.2" fill="#DDF0FF"/><rect x="131.77142857142857" y="395.3142857142857" width="65.88571428571429" height="65.88571428571429" fill="#ffffff"/><rect x="131.77" y="395.31" width="32.94" height="32.94" fill="#c754cf"/><path d="M 131.77 395.31 A 32.94 32.94 0 0 1 164.71 428.25 L 131.77 428.25" fill="#9C0D38"/><rect x="164.71" y="395.31" width="32.94" height="32.94" fill="#c754cf"/><path d="M 164.71 428.25 A 32.94 32.94 0 0 1  197.65 395.31 L 197.65 428.25" fill="#DBBBF5"/><rect x="131.77" y="428.26" width="32.94" height="32.94" fill="#9C0D38"/><path d="M 131.77 461.2 A 32.94 32.94 0 0 0 164.71 428.26 L 131.77 428.26" fill="#CE5374"/><rect x="164.71" y="428.26" width="32.94" height="32.94" fill="#DDF0FF"/><path d="M 164.71 428.26 A 32.94 32.94 0 0 0 197.65 461.2 L 197.65 428.26" fill="#9C0D38"/><rect x="197.65714285714284" y="395.3142857142857" width="65.88571428571429" height="65.88571428571429" fill="#ffffff"/><rect x="197.66" y="395.31" width="32.94" height="32.94" fill="#9C0D38"/><polygon points="230.6,395.31 230.6,428.25 197.66,428.25" fill="#DBBBF5"/><rect x="230.6" y="395.31" width="32.94" height="32.94" fill="#c754cf"/><polygon points="230.6,395.31 263.53999999999996,428.25 230.6,428.25" fill="#9C0D38"/><rect x="197.66" y="428.26" width="32.94" height="32.94" fill="#DDF0FF"/><polygon points="197.66,428.26 230.6,428.26 230.6,461.2" fill="#DDF0FF"/><rect x="230.6" y="428.26" width="32.94" height="32.94" fill="#9C0D38"/><polygon points="230.6,428.26 263.53999999999996,428.26 230.6,461.2" fill="#CE5374"/><rect x="263.54" y="395.31" width="65.89" height="65.89" fill="#DBBBF5"/><polygon points="263.54,395.31 329.43,395.31 329.43,461.2" fill="#DBBBF5"/><rect x="329.42857142857144" y="395.3142857142857" width="65.88571428571429" height="65.88571428571429" fill="#ffffff"/><rect x="329.43" y="395.31" width="32.94" height="32.94" fill="#DDF0FF"/><circle cx="345.9" cy="411.78" r="16.47" fill="#DDF0FF"/><rect x="362.37" y="395.31" width="32.94" height="32.94" fill="#CE5374"/><rect x="362.37" y="395.31" width="32.94" height="32.94" fill="#9C0D38"/><rect x="329.43" y="428.26" width="32.94" height="32.94" fill="#c754cf"/><circle cx="345.9" cy="444.73" r="16.47" fill="#CE5374"/><rect x="362.37" y="428.26" width="32.94" height="32.94" fill="#9C0D38"/><rect x="362.37" y="428.26" width="32.94" height="32.94" fill="#DDF0FF"/><rect x="395.3142857142857" y="395.3142857142857" width="65.88571428571429" height="65.88571428571429" fill="#ffffff"/><rect x="395.31" y="395.31" width="32.94" height="32.94" fill="#DDF0FF"/><path d="M 395.31 395.31 A 32.94 32.94 0 0 0 428.25 428.25 L 428.25 395.31" fill="#9C0D38"/><rect x="428.26" y="395.31" width="32.94" height="32.94" fill="#c754cf"/><path d="M 428.26 428.25 A 32.94 32.94 0 0 0 461.2 395.31 L 428.26 395.31" fill="#c754cf"/><rect x="395.31" y="428.26" width="32.94" height="32.94" fill="#DBBBF5"/><path d="M 395.31 461.2 A 32.94 32.94 0 0 1  428.25 428.26 L 428.25 461.2" fill="#CE5374"/><rect x="428.26" y="428.26" width="32.94" height="32.94" fill="#c754cf"/><path d="M 428.26 428.26 A 32.94 32.94 0 0 1 461.2 461.2 L 428.26 461.2" fill="#CE5374"/><rect x="461.2" y="395.3142857142857" width="65.88571428571429" height="65.88571428571429" fill="#ffffff"/><rect x="461.2" y="395.31" width="32.94" height="32.94" fill="#DBBBF5"/><polygon points="494.14,395.31 494.14,428.25 461.2,428.25" fill="#9C0D38"/><rect x="494.14" y="395.31" width="32.94" height="32.94" fill="#DDF0FF"/><polygon points="494.14,395.31 527.0799999999999,428.25 494.14,428.25" fill="#DDF0FF"/><rect x="461.2" y="428.26" width="32.94" height="32.94" fill="#9C0D38"/><polygon points="461.2,428.26 494.14,428.26 461.2,461.2" fill="#DDF0FF"/><rect x="494.14" y="428.26" width="32.94" height="32.94" fill="#DDF0FF"/><polygon points="494.14,428.26 527.0799999999999,428.26 527.0799999999999,461.2" fill="#DDF0FF"/><rect x="527.09" y="395.31" width="65.89" height="65.89" fill="#9C0D38"/><polygon points="527.09,395.31 592.98,461.2 527.09,461.2" fill="#DBBBF5"/><rect x="592.9714285714285" y="395.3142857142857" width="65.88571428571429" height="65.88571428571429" fill="#ffffff"/><rect x="592.97" y="395.31" width="32.94" height="32.94" fill="#CE5374"/><path d="M 592.97 395.31 A 32.94 32.94 0 0 0 625.9100000000001 428.25 L 625.9100000000001 395.31" fill="#9C0D38"/><rect x="625.91" y="395.31" width="32.94" height="32.94" fill="#c754cf"/><path d="M 625.91 428.25 A 32.94 32.94 0 0 0 658.8499999999999 395.31 L 625.91 395.31" fill="#CE5374"/><rect x="592.97" y="428.26" width="32.94" height="32.94" fill="#DDF0FF"/><path d="M 592.97 461.2 A 32.94 32.94 0 0 1  625.9100000000001 428.26 L 625.9100000000001 461.2" fill="#DBBBF5"/><rect x="625.91" y="428.26" width="32.94" height="32.94" fill="#c754cf"/><path d="M 625.91 428.26 A 32.94 32.94 0 0 1 658.8499999999999 461.2 L 625.91 461.2" fill="#DBBBF5"/><rect x="658.86" y="395.31" width="65.89" height="65.89" fill="#9C0D38"/><path d="M 658.86 461.2 A 65.89 65.89 0 0 0 724.75 395.31 L 658.86 395.31" fill="#DDF0FF"/><rect x="724.7428571428571" y="395.3142857142857" width="65.88571428571429" height="65.88571428571429" fill="#ffffff"/><rect x="724.74" y="395.31" width="32.94" height="32.94" fill="#9C0D38"/><path d="M 724.74 395.31 A 32.94 32.94 0 0 1 757.6800000000001 428.25 L 724.74 428.25" fill="#DDF0FF"/><rect x="757.69" y="395.31" width="32.94" height="32.94" fill="#DBBBF5"/><path d="M 757.69 428.25 A 32.94 32.94 0 0 1  790.6300000000001 395.31 L 790.6300000000001 428.25" fill="#c754cf"/><rect x="724.74" y="428.26" width="32.94" height="32.94" fill="#DDF0FF"/><path d="M 724.74 461.2 A 32.94 32.94 0 0 0 757.6800000000001 428.26 L 724.74 428.26" fill="#DDF0FF"/><rect x="757.69" y="428.26" width="32.94" height="32.94" fill="#CE5374"/><path d="M 757.69 428.26 A 32.94 32.94 0 0 0 790.6300000000001 461.2 L 790.6300000000001 428.26" fill="#c754cf"/></g></svg>