<?xml version="1.0" standalone="no"?><svg xmlns:xlink="http://www.w3.org/1999/xlink" xmlns="http://www.w3.org/2000/svg" viewBox="0 0 1900 1108.344752975117" preserveAspectRatio="xMaxYMax slice"><g transform="scale(2.7407140281283806)"><rect x="0" y="0" width="693.2571428571428" height="404.4" fill="#ffffff"/><rect x="0" y="0" width="57.771428571428565" height="57.771428571428565" fill="#ffffff"/><rect x="0" y="0" width="28.89" height="28.89" fill="#fffcfd"/><path d="M 0 0 A 28.89 28.89 0 0 1 28.89 28.89 L 0 28.89" fill="#ffd1e1"/><rect x="28.89" y="0" width="28.89" height="28.89" fill="#d1e9fe"/><path d="M 28.89 0 A 28.89 28.89 0 0 0 57.78 28.89 L 57.78 0" fill="#ffc8dd"/><rect x="0" y="28.89" width="28.89" height="28.89" fill="#fdfcfd"/><path d="M 0 57.78 A 28.89 28.89 0 0 1  28.89 28.89 L 28.89 57.78" fill="#ffc3d9"/><rect x="28.89" y="28.89" width="28.89" height="28.89" fill="#ffcfe1"/><path d="M 28.89 28.89 A 28.89 28.89 0 0 1 57.78 57.78 L 28.89 57.78" fill="#ffb2ce"/><rect x="57.771428571428565" y="0" width="57.771428571428565" height="57.771428571428565" fill="#ffffff"/><rect x="57.77" y="0" width="28.89" height="28.89" fill="#efe8f4"/><path d="M 57.77 28.89 A 28.89 28.89 0 0 1  86.66 0 L 57.77 28.89 A 28.89 28.89 0 0 0 86.66 0" fill="#fff2f7"/><rect x="86.66" y="0" width="28.89" height="28.89" fill="#e4f2ff"/><path d="M 86.66 28.89 A 28.89 28.89 0 0 0 115.55 0 L 86.66 0" fill="#dceefe"/><rect x="57.77" y="28.89" width="28.89" height="28.89" fill="#e2f1ff"/><path d="M 57.77 28.89 A 28.89 28.89 0 0 1  86.66 57.78 L 57.77 28.89 A 28.89 28.89 0 0 0 86.66 57.78" fill="#ffe5ee"/><rect x="86.66" y="28.89" width="28.89" height="28.89" fill="#ffe2ec"/><path d="M 86.66 57.78 A 28.89 28.89 0 0 0 115.55 28.89 L 86.66 28.89" fill="#ffeef4"/><rect x="115.54" y="0" width="57.77" height="57.77" fill="#bfe1fe"/><path d="M 115.54 0 A 57.77 57.77 0 0 1  173.31 57.77 L 115.54 0 A 57.77 57.77 0 0 0 173.31 57.77" fill="#ffd4e5"/><rect x="173.31" y="0" width="57.77" height="57.77" fill="#ebe1f0"/><path d="M 173.31 0 A 57.77 57.77 0 0 1 231.08 57.77 L 173.31 57.77" fill="#fff7fa"/><rect x="231.08571428571426" y="0" width="57.771428571428565" height="57.771428571428565" fill="#ffffff"/><rect x="231.09" y="0" width="28.89" height="28.89" fill="#ffcfe2"/><path d="M 231.09 28.89 A 28.89 28.89 0 0 1  259.98 0 L 259.98 28.89" fill="#c4e3fe"/><rect x="259.97" y="0" width="28.89" height="28.89" fill="#ffc5da"/><path d="M 259.97 0 A 28.89 28.89 0 0 0 288.86 28.89 L 288.86 0" fill="#ffb3ce"/><rect x="231.09" y="28.89" width="28.89" height="28.89" fill="#ffeaf2"/><path d="M 231.09 28.89 A 28.89 28.89 0 0 1  259.98 57.78 L 231.09 28.89 A 28.89 28.89 0 0 0 259.98 57.78" fill="#cce7fe"/><rect x="259.97" y="28.89" width="28.89" height="28.89" fill="#fffbfc"/><path d="M 259.97 28.89 A 28.89 28.89 0 0 1 288.86 57.78 L 259.97 57.78" fill="#ffcde0"/><rect x="288.85714285714283" y="0" width="57.771428571428565" height="57.771428571428565" fill="#ffffff"/><rect x="288.86" y="0" width="28.89" height="28.89" fill="#ede5f2"/><path d="M 288.86 28.89 A 28.89 28.89 0 0 1  317.75 0 L 317.75 28.89" fill="#ffd1e3"/><rect x="317.74" y="0" width="28.89" height="28.89" fill="#ffdeeb"/><path d="M 317.74 0 A 28.89 28.89 0 0 1  346.63 28.89 L 317.74 0 A 28.89 28.89 0 0 0 346.63 28.89" fill="#fff6fa"/><rect x="288.86" y="28.89" width="28.89" height="28.89" fill="#fff4f8"/><path d="M 288.86 57.78 A 28.89 28.89 0 0 1  317.75 28.89 L 288.86 57.78 A 28.89 28.89 0 0 0 317.75 28.89" fill="#eef7ff"/><rect x="317.74" y="28.89" width="28.89" height="28.89" fill="#ffcde0"/><path d="M 317.74 28.89 A 28.89 28.89 0 0 1 346.63 57.78 L 317.74 57.78" fill="#faf8fc"/><rect x="346.6285714285714" y="0" width="57.771428571428565" height="57.771428571428565" fill="#ffffff"/><rect x="346.63" y="0" width="28.89" height="28.89" fill="#ffffff"/><path d="M 346.63 28.89 A 28.89 28.89 0 0 0 375.52 0 L 346.63 0" fill="#bde0fe"/><rect x="375.51" y="0" width="28.89" height="28.89" fill="#ffb0cd"/><path d="M 375.51 28.89 A 28.89 28.89 0 0 1  404.4 0 L 375.51 28.89 A 28.89 28.89 0 0 0 404.4 0" fill="#cce7fe"/><rect x="346.63" y="28.89" width="28.89" height="28.89" fill="#fefdfe"/><path d="M 346.63 57.78 A 28.89 28.89 0 0 0 375.52 28.89 L 346.63 28.89" fill="#e7dcee"/><rect x="375.51" y="28.89" width="28.89" height="28.89" fill="#ddeffe"/><path d="M 375.51 28.89 A 28.89 28.89 0 0 1  404.4 57.78 L 375.51 28.89 A 28.89 28.89 0 0 0 404.4 57.78" fill="#ffc9dd"/><rect x="404.4" y="0" width="57.771428571428565" height="57.771428571428565" fill="#ffffff"/><rect x="404.4" y="0" width="28.89" height="28.89" fill="#edf7ff"/><path d="M 404.4 28.89 A 28.89 28.89 0 0 0 433.28999999999996 0 L 404.4 0" fill="#fdfcfe"/><rect x="433.29" y="0" width="28.89" height="28.89" fill="#ffcbde"/><path d="M 433.29 28.89 A 28.89 28.89 0 0 1  462.18 0 L 433.29 28.89 A 28.89 28.89 0 0 0 462.18 0" fill="#dbeefe"/><rect x="404.4" y="28.89" width="28.89" height="28.89" fill="#ffd7e7"/><path d="M 404.4 28.89 A 28.89 28.89 0 0 0 433.28999999999996 57.78 L 433.28999999999996 28.89" fill="#e0d1e9"/><rect x="433.29" y="28.89" width="28.89" height="28.89" fill="#fff4f8"/><path d="M 433.29 57.78 A 28.89 28.89 0 0 0 462.18 28.89 L 433.29 28.89" fill="#fff4f8"/><rect x="462.17" y="0" width="57.77" height="57.77" fill="#ffd0e2"/><path d="M 462.17 57.77 A 57.77 57.77 0 0 1  519.94 0 L 462.17 57.77 A 57.77 57.77 0 0 0 519.94 0" fill="#ffc2d8"/><rect x="519.94" y="0" width="57.77" height="57.77" fill="#e8f4ff"/><path d="M 519.94 57.77 A 57.77 57.77 0 0 1  577.71 0 L 519.94 57.77 A 57.77 57.77 0 0 0 577.71 0" fill="#cee8fe"/><rect x="577.71" y="0" width="57.77" height="57.77" fill="#c6e4fe"/><path d="M 577.71 0 A 57.77 57.77 0 0 1 635.48 57.77 L 577.71 57.77" fill="#fefefe"/><rect x="635.4857142857143" y="0" width="57.771428571428565" height="57.771428571428565" fill="#ffffff"/><rect x="635.49" y="0" width="28.89" height="28.89" fill="#d3eafe"/><path d="M 635.49 28.89 A 28.89 28.89 0 0 0 664.38 0 L 635.49 0" fill="#fffeff"/><rect x="664.37" y="0" width="28.89" height="28.89" fill="#fff2f7"/><path d="M 664.37 0 A 28.89 28.89 0 0 1  693.26 28.89 L 664.37 0 A 28.89 28.89 0 0 0 693.26 28.89" fill="#ffd2e3"/><rect x="635.49" y="28.89" width="28.89" height="28.89" fill="#ffdfeb"/><path d="M 635.49 57.78 A 28.89 28.89 0 0 0 664.38 28.89 L 635.49 28.89" fill="#ffd9e8"/><rect x="664.37" y="28.89" width="28.89" height="28.89" fill="#ffdae7"/><path d="M 664.37 57.78 A 28.89 28.89 0 0 0 693.26 28.89 L 664.37 28.89" fill="#ffb1cd"/><rect x="0" y="57.77" width="57.77" height="57.77" fill="#ffffff"/><path d="M 0 115.54 A 57.77 57.77 0 0 1  57.77 57.77 L 0 115.54 A 57.77 57.77 0 0 0 57.77 57.77" fill="#d9c5e3"/><rect x="57.771428571428565" y="57.771428571428565" width="57.771428571428565" height="57.771428571428565" fill="#ffffff"/><rect x="57.77" y="57.77" width="28.89" height="28.89" fill="#f1f8ff"/><path d="M 57.77 57.77 A 28.89 28.89 0 0 1 86.66 86.66 L 57.77 86.66" fill="#efe7f3"/><rect x="86.66" y="57.77" width="28.89" height="28.89" fill="#f4faff"/><path d="M 86.66 86.66 A 28.89 28.89 0 0 0 115.55 57.77 L 86.66 57.77" fill="#d0b9dd"/><rect x="57.77" y="86.66" width="28.89" height="28.89" fill="#fff7fa"/><path d="M 57.77 86.66 A 28.89 28.89 0 0 1  86.66 115.55 L 57.77 86.66 A 28.89 28.89 0 0 0 86.66 115.55" fill="#ffeaf2"/><rect x="86.66" y="86.66" width="28.89" height="28.89" fill="#ffedf3"/><path d="M 86.66 115.55 A 28.89 28.89 0 0 0 115.55 86.66 L 86.66 86.66" fill="#ffdfeb"/><rect x="115.54285714285713" y="57.771428571428565" width="57.771428571428565" height="57.771428571428565" fill="#ffffff"/><rect x="115.54" y="57.77" width="28.89" height="28.89" fill="#daedfe"/><path d="M 115.54 57.77 A 28.89 28.89 0 0 1 144.43 86.66 L 115.54 86.66" fill="#ffe4ee"/><rect x="144.43" y="57.77" width="28.89" height="28.89" fill="#ffe8f0"/><path d="M 144.43 57.77 A 28.89 28.89 0 0 1  173.32 86.66 L 144.43 57.77 A 28.89 28.89 0 0 0 173.32 86.66" fill="#d4bee0"/><rect x="115.54" y="86.66" width="28.89" height="28.89" fill="#ffb6d1"/><path d="M 115.54 86.66 A 28.89 28.89 0 0 1  144.43 115.55 L 115.54 86.66 A 28.89 28.89 0 0 0 144.43 115.55" fill="#eee5f3"/><rect x="144.43" y="86.66" width="28.89" height="28.89" fill="#ffdbe9"/><path d="M 144.43 115.55 A 28.89 28.89 0 0 1  173.32 86.66 L 173.32 115.55" fill="#e5d8ec"/><rect x="173.3142857142857" y="57.771428571428565" width="57.771428571428565" height="57.771428571428565" fill="#ffffff"/><rect x="173.31" y="57.77" width="28.89" height="28.89" fill="#fcfdff"/><path d="M 173.31 86.66 A 28.89 28.89 0 0 0 202.2 57.77 L 173.31 57.77" fill="#ffe2ed"/><rect x="202.2" y="57.77" width="28.89" height="28.89" fill="#edf7ff"/><path d="M 202.2 86.66 A 28.89 28.89 0 0 0 231.08999999999997 57.77 L 202.2 57.77" fill="#d0e9fe"/><rect x="173.31" y="86.66" width="28.89" height="28.89" fill="#eaf5ff"/><path d="M 173.31 115.55 A 28.89 28.89 0 0 1  202.2 86.66 L 202.2 115.55" fill="#cce7fe"/><rect x="202.2" y="86.66" width="28.89" height="28.89" fill="#ffdce9"/><path d="M 202.2 115.55 A 28.89 28.89 0 0 1  231.08999999999997 86.66 L 202.2 115.55 A 28.89 28.89 0 0 0 231.08999999999997 86.66" fill="#dceffe"/><rect x="231.08571428571426" y="57.771428571428565" width="57.771428571428565" height="57.771428571428565" fill="#ffffff"/><rect x="231.09" y="57.77" width="28.89" height="28.89" fill="#f7f3f9"/><path d="M 231.09 86.66 A 28.89 28.89 0 0 1  259.98 57.77 L 231.09 86.66 A 28.89 28.89 0 0 0 259.98 57.77" fill="#d3eafe"/><rect x="259.97" y="57.77" width="28.89" height="28.89" fill="#fcfafd"/><path d="M 259.97 57.77 A 28.89 28.89 0 0 0 288.86 86.66 L 288.86 57.77" fill="#fffcfd"/><rect x="231.09" y="86.66" width="28.89" height="28.89" fill="#d1e9fe"/><path d="M 231.09 115.55 A 28.89 28.89 0 0 1  259.98 86.66 L 259.98 115.55" fill="#eff7ff"/><rect x="259.97" y="86.66" width="28.89" height="28.89" fill="#ffdce9"/><path d="M 259.97 86.66 A 28.89 28.89 0 0 1  288.86 115.55 L 259.97 86.66 A 28.89 28.89 0 0 0 288.86 115.55" fill="#e6daed"/><rect x="288.86" y="57.77" width="57.77" height="57.77" fill="#fffafc"/><path d="M 288.86 57.77 A 57.77 57.77 0 0 1 346.63 115.54 L 288.86 115.54" fill="#ffcbdf"/><rect x="346.63" y="57.77" width="57.77" height="57.77" fill="#ffbed6"/><path d="M 346.63 115.54 A 57.77 57.77 0 0 1  404.4 57.77 L 346.63 115.54 A 57.77 57.77 0 0 0 404.4 57.77" fill="#ffecf3"/><rect x="404.4" y="57.771428571428565" width="57.771428571428565" height="57.771428571428565" fill="#ffffff"/><rect x="404.4" y="57.77" width="28.89" height="28.89" fill="#ffd2e3"/><path d="M 404.4 86.66 A 28.89 28.89 0 0 1  433.28999999999996 57.77 L 404.4 86.66 A 28.89 28.89 0 0 0 433.28999999999996 57.77" fill="#fff2f7"/><rect x="433.29" y="57.77" width="28.89" height="28.89" fill="#ffe4ee"/><path d="M 433.29 57.77 A 28.89 28.89 0 0 0 462.18 86.66 L 462.18 57.77" fill="#d9edfe"/><rect x="404.4" y="86.66" width="28.89" height="28.89" fill="#f8fcff"/><path d="M 404.4 115.55 A 28.89 28.89 0 0 1  433.28999999999996 86.66 L 433.28999999999996 115.55" fill="#eee6f3"/><rect x="433.29" y="86.66" width="28.89" height="28.89" fill="#d7ecfe"/><path d="M 433.29 115.55 A 28.89 28.89 0 0 1  462.18 86.66 L 433.29 115.55 A 28.89 28.89 0 0 0 462.18 86.66" fill="#ffc8dc"/><rect x="462.17" y="57.77" width="57.77" height="57.77" fill="#fff1f6"/><path d="M 462.17 57.77 A 57.77 57.77 0 0 0 519.94 115.54 L 519.94 57.77" fill="#eadff0"/><rect x="519.9428571428571" y="57.771428571428565" width="57.771428571428565" height="57.771428571428565" fill="#ffffff"/><rect x="519.94" y="57.77" width="28.89" height="28.89" fill="#d3bee0"/><path d="M 519.94 57.77 A 28.89 28.89 0 0 0 548.83 86.66 L 548.83 57.77" fill="#e0d0e8"/><rect x="548.83" y="57.77" width="28.89" height="28.89" fill="#ffc0d7"/><path d="M 548.83 57.77 A 28.89 28.89 0 0 1 577.72 86.66 L 548.83 86.66" fill="#ffe3ed"/><rect x="519.94" y="86.66" width="28.89" height="28.89" fill="#ffb5d0"/><path d="M 519.94 115.55 A 28.89 28.89 0 0 0 548.83 86.66 L 519.94 86.66" fill="#ffdfeb"/><rect x="548.83" y="86.66" width="28.89" height="28.89" fill="#d4ebfe"/><path d="M 548.83 86.66 A 28.89 28.89 0 0 1  577.72 115.55 L 548.83 86.66 A 28.89 28.89 0 0 0 577.72 115.55" fill="#ffe9f1"/><rect x="577.71" y="57.77" width="57.77" height="57.77" fill="#ffd1e3"/><path d="M 577.71 115.54 A 57.77 57.77 0 0 1  635.48 57.77 L 577.71 115.54 A 57.77 57.77 0 0 0 635.48 57.77" fill="#ffd5e5"/><rect x="635.49" y="57.77" width="57.77" height="57.77" fill="#f3f9ff"/><path d="M 635.49 57.77 A 57.77 57.77 0 0 0 693.26 115.54 L 693.26 57.77" fill="#ffe0ec"/><rect x="0" y="115.54" width="57.77" height="57.77" fill="#d8c4e3"/><path d="M 0 115.54 A 57.77 57.77 0 0 1 57.77 173.31 L 0 173.31" fill="#fff6f9"/><rect x="57.77" y="115.54" width="57.77" height="57.77" fill="#e2f1ff"/><path d="M 57.77 115.54 A 57.77 57.77 0 0 1  115.54 173.31 L 57.77 115.54 A 57.77 57.77 0 0 0 115.54 173.31" fill="#f9fcff"/><rect x="115.54" y="115.54" width="57.77" height="57.77" fill="#ffc1d7"/><path d="M 115.54 115.54 A 57.77 57.77 0 0 1 173.31 173.31 L 115.54 173.31" fill="#dac8e5"/><rect x="173.3142857142857" y="115.54285714285713" width="57.771428571428565" height="57.771428571428565" fill="#ffffff"/><rect x="173.31" y="115.54" width="28.89" height="28.89" fill="#d2bcdf"/><path d="M 173.31 144.43 A 28.89 28.89 0 0 1  202.2 115.54 L 173.31 144.43 A 28.89 28.89 0 0 0 202.2 115.54" fill="#ffd2e2"/><rect x="202.2" y="115.54" width="28.89" height="28.89" fill="#fff4f8"/><path d="M 202.2 144.43 A 28.89 28.89 0 0 0 231.08999999999997 115.54 L 202.2 115.54" fill="#c5e4fe"/><rect x="173.31" y="144.43" width="28.89" height="28.89" fill="#d4bfe0"/><path d="M 173.31 173.32 A 28.89 28.89 0 0 1  202.2 144.43 L 202.2 173.32" fill="#ddcce7"/><rect x="202.2" y="144.43" width="28.89" height="28.89" fill="#fff6f9"/><path d="M 202.2 173.32 A 28.89 28.89 0 0 1  231.08999999999997 144.43 L 231.08999999999997 173.32" fill="#ffcde0"/><rect x="231.08571428571426" y="115.54285714285713" width="57.771428571428565" height="57.771428571428565" fill="#ffffff"/><rect x="231.09" y="115.54" width="28.89" height="28.89" fill="#ffeaf2"/><path d="M 231.09 115.54 A 28.89 28.89 0 0 1 259.98 144.43 L 231.09 144.43" fill="#fff0f6"/><rect x="259.97" y="115.54" width="28.89" height="28.89" fill="#ffcee1"/><path d="M 259.97 144.43 A 28.89 28.89 0 0 1  288.86 115.54 L 259.97 144.43 A 28.89 28.89 0 0 0 288.86 115.54" fill="#eef7ff"/><rect x="231.09" y="144.43" width="28.89" height="28.89" fill="#fff0f5"/><path d="M 231.09 173.32 A 28.89 28.89 0 0 1  259.98 144.43 L 231.09 173.32 A 28.89 28.89 0 0 0 259.98 144.43" fill="#fff7fa"/><rect x="259.97" y="144.43" width="28.89" height="28.89" fill="#ffd2e3"/><path d="M 259.97 144.43 A 28.89 28.89 0 0 0 288.86 173.32 L 288.86 144.43" fill="#fffefe"/><rect x="288.85714285714283" y="115.54285714285713" width="57.771428571428565" height="57.771428571428565" fill="#ffffff"/><rect x="288.86" y="115.54" width="28.89" height="28.89" fill="#eee5f2"/><path d="M 288.86 144.43 A 28.89 28.89 0 0 0 317.75 115.54 L 288.86 115.54" fill="#ffe0eb"/><rect x="317.74" y="115.54" width="28.89" height="28.89" fill="#ffcade"/><path d="M 317.74 144.43 A 28.89 28.89 0 0 1  346.63 115.54 L 317.74 144.43 A 28.89 28.89 0 0 0 346.63 115.54" fill="#eae0f0"/><rect x="288.86" y="144.43" width="28.89" height="28.89" fill="#ffd8e6"/><path d="M 288.86 173.32 A 28.89 28.89 0 0 1  317.75 144.43 L 288.86 173.32 A 28.89 28.89 0 0 0 317.75 144.43" fill="#dbeefe"/><rect x="317.74" y="144.43" width="28.89" height="28.89" fill="#feffff"/><path d="M 317.74 173.32 A 28.89 28.89 0 0 0 346.63 144.43 L 317.74 144.43" fill="#fffcfd"/><rect x="346.63" y="115.54" width="57.77" height="57.77" fill="#e0d1e9"/><path d="M 346.63 115.54 A 57.77 57.77 0 0 1  404.4 173.31 L 346.63 115.54 A 57.77 57.77 0 0 0 404.4 173.31" fill="#ffe1ec"/><rect x="404.4" y="115.54" width="57.77" height="57.77" fill="#e9f5ff"/><path d="M 404.4 115.54 A 57.77 57.77 0 0 0 462.16999999999996 173.31 L 462.16999999999996 115.54" fill="#d8edfe"/><rect x="462.17" y="115.54" width="57.77" height="57.77" fill="#c3e3fe"/><path d="M 462.17 115.54 A 57.77 57.77 0 0 0 519.94 173.31 L 519.94 115.54" fill="#decde7"/><rect x="519.9428571428571" y="115.54285714285713" width="57.771428571428565" height="57.771428571428565" fill="#ffffff"/><rect x="519.94" y="115.54" width="28.89" height="28.89" fill="#ffe5ef"/><path d="M 519.94 144.43 A 28.89 28.89 0 0 1  548.83 115.54 L 519.94 144.43 A 28.89 28.89 0 0 0 548.83 115.54" fill="#e7f4ff"/><rect x="548.83" y="115.54" width="28.89" height="28.89" fill="#e2f1ff"/><path d="M 548.83 144.43 A 28.89 28.89 0 0 1  577.72 115.54 L 548.83 144.43 A 28.89 28.89 0 0 0 577.72 115.54" fill="#ffe8f0"/><rect x="519.94" y="144.43" width="28.89" height="28.89" fill="#f6fbff"/><path d="M 519.94 173.32 A 28.89 28.89 0 0 1  548.83 144.43 L 548.83 173.32" fill="#e7dbed"/><rect x="548.83" y="144.43" width="28.89" height="28.89" fill="#e2f1ff"/><path d="M 548.83 173.32 A 28.89 28.89 0 0 0 577.72 144.43 L 548.83 144.43" fill="#f4eef7"/><rect x="577.7142857142857" y="115.54285714285713" width="57.771428571428565" height="57.771428571428565" fill="#ffffff"/><rect x="577.71" y="115.54" width="28.89" height="28.89" fill="#fff1f7"/><path d="M 577.71 144.43 A 28.89 28.89 0 0 1  606.6 115.54 L 606.6 144.43" fill="#ffcce0"/><rect x="606.6" y="115.54" width="28.89" height="28.89" fill="#e5d8ec"/><path d="M 606.6 144.43 A 28.89 28.89 0 0 1  635.49 115.54 L 606.6 144.43 A 28.89 28.89 0 0 0 635.49 115.54" fill="#fbf9fc"/><rect x="577.71" y="144.43" width="28.89" height="28.89" fill="#ffd7e6"/><path d="M 577.71 144.43 A 28.89 28.89 0 0 1  606.6 173.32 L 577.71 144.43 A 28.89 28.89 0 0 0 606.6 173.32" fill="#fffafc"/><rect x="606.6" y="144.43" width="28.89" height="28.89" fill="#e3f2ff"/><path d="M 606.6 144.43 A 28.89 28.89 0 0 0 635.49 173.32 L 635.49 144.43" fill="#ede4f2"/><rect x="635.49" y="115.54" width="57.77" height="57.77" fill="#d7ecfe"/><path d="M 635.49 173.31 A 57.77 57.77 0 0 1  693.26 115.54 L 693.26 173.31" fill="#c5e4fe"/><rect x="0" y="173.3142857142857" width="57.771428571428565" height="57.771428571428565" fill="#ffffff"/><rect x="0" y="173.31" width="28.89" height="28.89" fill="#e6daed"/><path d="M 0 202.2 A 28.89 28.89 0 0 1  28.89 173.31 L 28.89 202.2" fill="#cdb5db"/><rect x="28.89" y="173.31" width="28.89" height="28.89" fill="#ffedf4"/><path d="M 28.89 173.31 A 28.89 28.89 0 0 1 57.78 202.2 L 28.89 202.2" fill="#fff3f7"/><rect x="0" y="202.2" width="28.89" height="28.89" fill="#f5f0f8"/><path d="M 0 231.08999999999997 A 28.89 28.89 0 0 1  28.89 202.2 L 0 231.08999999999997 A 28.89 28.89 0 0 0 28.89 202.2" fill="#ffbdd5"/><rect x="28.89" y="202.2" width="28.89" height="28.89" fill="#fff5f9"/><path d="M 28.89 202.2 A 28.89 28.89 0 0 1  57.78 231.08999999999997 L 28.89 202.2 A 28.89 28.89 0 0 0 57.78 231.08999999999997" fill="#ffb9d2"/><rect x="57.77" y="173.31" width="57.77" height="57.77" fill="#d7c4e2"/><path d="M 57.77 173.31 A 57.77 57.77 0 0 1  115.54 231.08 L 57.77 173.31 A 57.77 57.77 0 0 0 115.54 231.08" fill="#d8edfe"/><rect x="115.54285714285713" y="173.3142857142857" width="57.771428571428565" height="57.771428571428565" fill="#ffffff"/><rect x="115.54" y="173.31" width="28.89" height="28.89" fill="#c3e3fe"/><path d="M 115.54 173.31 A 28.89 28.89 0 0 0 144.43 202.2 L 144.43 173.31" fill="#ffeef5"/><rect x="144.43" y="173.31" width="28.89" height="28.89" fill="#d8c5e3"/><path d="M 144.43 202.2 A 28.89 28.89 0 0 0 173.32 173.31 L 144.43 173.31" fill="#fffbfd"/><rect x="115.54" y="202.2" width="28.89" height="28.89" fill="#ffd0e2"/><path d="M 115.54 202.2 A 28.89 28.89 0 0 1  144.43 231.08999999999997 L 115.54 202.2 A 28.89 28.89 0 0 0 144.43 231.08999999999997" fill="#f6f2f9"/><rect x="144.43" y="202.2" width="28.89" height="28.89" fill="#ffdfeb"/><path d="M 144.43 202.2 A 28.89 28.89 0 0 1 173.32 231.08999999999997 L 144.43 231.08999999999997" fill="#f1eaf5"/><rect x="173.3142857142857" y="173.3142857142857" width="57.771428571428565" height="57.771428571428565" fill="#ffffff"/><rect x="173.31" y="173.31" width="28.89" height="28.89" fill="#f4eef7"/><path d="M 173.31 173.31 A 28.89 28.89 0 0 0 202.2 202.2 L 202.2 173.31" fill="#ffb4cf"/><rect x="202.2" y="173.31" width="28.89" height="28.89" fill="#eae0f0"/><path d="M 202.2 202.2 A 28.89 28.89 0 0 1  231.08999999999997 173.31 L 202.2 202.2 A 28.89 28.89 0 0 0 231.08999999999997 173.31" fill="#ffccdf"/><rect x="173.31" y="202.2" width="28.89" height="28.89" fill="#daeefe"/><path d="M 173.31 231.08999999999997 A 28.89 28.89 0 0 1  202.2 202.2 L 202.2 231.08999999999997" fill="#ffe8f1"/><rect x="202.2" y="202.2" width="28.89" height="28.89" fill="#ddcde7"/><path d="M 202.2 202.2 A 28.89 28.89 0 0 1 231.08999999999997 231.08999999999997 L 202.2 231.08999999999997" fill="#efe8f4"/><rect x="231.09" y="173.31" width="57.77" height="57.77" fill="#ffdbe9"/><path d="M 231.09 173.31 A 57.77 57.77 0 0 1 288.86 231.08 L 231.09 231.08" fill="#e2d3ea"/><rect x="288.86" y="173.31" width="57.77" height="57.77" fill="#c2e2fe"/><path d="M 288.86 231.08 A 57.77 57.77 0 0 0 346.63 173.31 L 288.86 173.31" fill="#ffc8dc"/><rect x="346.63" y="173.31" width="57.77" height="57.77" fill="#ffbed5"/><path d="M 346.63 173.31 A 57.77 57.77 0 0 1  404.4 231.08 L 346.63 173.31 A 57.77 57.77 0 0 0 404.4 231.08" fill="#cae6fe"/><rect x="404.4" y="173.31" width="57.77" height="57.77" fill="#ffdbe8"/><path d="M 404.4 231.08 A 57.77 57.77 0 0 1  462.16999999999996 173.31 L 404.4 231.08 A 57.77 57.77 0 0 0 462.16999999999996 173.31" fill="#eff8ff"/><rect x="462.17" y="173.31" width="57.77" height="57.77" fill="#fff8fb"/><path d="M 462.17 173.31 A 57.77 57.77 0 0 1  519.94 231.08 L 462.17 173.31 A 57.77 57.77 0 0 0 519.94 231.08" fill="#fff0f6"/><rect x="519.9428571428571" y="173.3142857142857" width="57.771428571428565" height="57.771428571428565" fill="#ffffff"/><rect x="519.94" y="173.31" width="28.89" height="28.89" fill="#fff9fb"/><path d="M 519.94 173.31 A 28.89 28.89 0 0 0 548.83 202.2 L 548.83 173.31" fill="#f2ecf6"/><rect x="548.83" y="173.31" width="28.89" height="28.89" fill="#ffe5ef"/><path d="M 548.83 173.31 A 28.89 28.89 0 0 1  577.72 202.2 L 548.83 173.31 A 28.89 28.89 0 0 0 577.72 202.2" fill="#c1e2fe"/><rect x="519.94" y="202.2" width="28.89" height="28.89" fill="#d0b9dd"/><path d="M 519.94 202.2 A 28.89 28.89 0 0 0 548.83 231.08999999999997 L 548.83 202.2" fill="#fffcfd"/><rect x="548.83" y="202.2" width="28.89" height="28.89" fill="#daedfe"/><path d="M 548.83 231.08999999999997 A 28.89 28.89 0 0 1  577.72 202.2 L 577.72 231.08999999999997" fill="#ffd5e5"/><rect x="577.7142857142857" y="173.3142857142857" width="57.771428571428565" height="57.771428571428565" fill="#ffffff"/><rect x="577.71" y="173.31" width="28.89" height="28.89" fill="#fdfbfd"/><path d="M 577.71 202.2 A 28.89 28.89 0 0 1  606.6 173.31 L 577.71 202.2 A 28.89 28.89 0 0 0 606.6 173.31" fill="#ffcee0"/><rect x="606.6" y="173.31" width="28.89" height="28.89" fill="#d1e9fe"/><path d="M 606.6 173.31 A 28.89 28.89 0 0 0 635.49 202.2 L 635.49 173.31" fill="#f1f8ff"/><rect x="577.71" y="202.2" width="28.89" height="28.89" fill="#bee0fe"/><path d="M 577.71 202.2 A 28.89 28.89 0 0 1  606.6 231.08999999999997 L 577.71 202.2 A 28.89 28.89 0 0 0 606.6 231.08999999999997" fill="#ffebf3"/><rect x="606.6" y="202.2" width="28.89" height="28.89" fill="#f9fcff"/><path d="M 606.6 202.2 A 28.89 28.89 0 0 1 635.49 231.08999999999997 L 606.6 231.08999999999997" fill="#ffdae8"/><rect x="635.4857142857143" y="173.3142857142857" width="57.771428571428565" height="57.771428571428565" fill="#ffffff"/><rect x="635.49" y="173.31" width="28.89" height="28.89" fill="#ffdeea"/><path d="M 635.49 202.2 A 28.89 28.89 0 0 1  664.38 173.31 L 635.49 202.2 A 28.89 28.89 0 0 0 664.38 173.31" fill="#e8f4ff"/><rect x="664.37" y="173.31" width="28.89" height="28.89" fill="#d4ebfe"/><path d="M 664.37 173.31 A 28.89 28.89 0 0 1 693.26 202.2 L 664.37 202.2" fill="#ffcce0"/><rect x="635.49" y="202.2" width="28.89" height="28.89" fill="#ffc1d8"/><path d="M 635.49 202.2 A 28.89 28.89 0 0 0 664.38 231.08999999999997 L 664.38 202.2" fill="#e3d4eb"/><rect x="664.37" y="202.2" width="28.89" height="28.89" fill="#ffd9e7"/><path d="M 664.37 202.2 A 28.89 28.89 0 0 1 693.26 231.08999999999997 L 664.37 231.08999999999997" fill="#ffd7e6"/><rect x="0" y="231.08571428571426" width="57.771428571428565" height="57.771428571428565" fill="#ffffff"/><rect x="0" y="231.09" width="28.89" height="28.89" fill="#ffe0ec"/><path d="M 0 231.09 A 28.89 28.89 0 0 1 28.89 259.98 L 0 259.98" fill="#ffbed6"/><rect x="28.89" y="231.09" width="28.89" height="28.89" fill="#ffcfe1"/><path d="M 28.89 231.09 A 28.89 28.89 0 0 1 57.78 259.98 L 28.89 259.98" fill="#ebe1f0"/><rect x="0" y="259.97" width="28.89" height="28.89" fill="#ffffff"/><path d="M 0 259.97 A 28.89 28.89 0 0 1  28.89 288.86 L 0 259.97 A 28.89 28.89 0 0 0 28.89 288.86" fill="#fff2f7"/><rect x="28.89" y="259.97" width="28.89" height="28.89" fill="#ffcade"/><path d="M 28.89 259.97 A 28.89 28.89 0 0 1 57.78 288.86 L 28.89 288.86" fill="#ffeff5"/><rect x="57.771428571428565" y="231.08571428571426" width="57.771428571428565" height="57.771428571428565" fill="#ffffff"/><rect x="57.77" y="231.09" width="28.89" height="28.89" fill="#e7dbee"/><path d="M 57.77 259.98 A 28.89 28.89 0 0 0 86.66 231.09 L 57.77 231.09" fill="#ffe7f0"/><rect x="86.66" y="231.09" width="28.89" height="28.89" fill="#ffc7db"/><path d="M 86.66 231.09 A 28.89 28.89 0 0 1 115.55 259.98 L 86.66 259.98" fill="#ffeef4"/><rect x="57.77" y="259.97" width="28.89" height="28.89" fill="#f6f2f9"/><path d="M 57.77 259.97 A 28.89 28.89 0 0 1 86.66 288.86 L 57.77 288.86" fill="#fff6fa"/><rect x="86.66" y="259.97" width="28.89" height="28.89" fill="#eff8ff"/><path d="M 86.66 259.97 A 28.89 28.89 0 0 1  115.55 288.86 L 86.66 259.97 A 28.89 28.89 0 0 0 115.55 288.86" fill="#fff6f9"/><rect x="115.54" y="231.09" width="57.77" height="57.77" fill="#ffeff5"/><path d="M 115.54 231.09 A 57.77 57.77 0 0 0 173.31 288.86 L 173.31 231.09" fill="#ffd1e3"/><rect x="173.3142857142857" y="231.08571428571426" width="57.771428571428565" height="57.771428571428565" fill="#ffffff"/><rect x="173.31" y="231.09" width="28.89" height="28.89" fill="#dbc8e5"/><path d="M 173.31 259.98 A 28.89 28.89 0 0 0 202.2 231.09 L 173.31 231.09" fill="#dbeefe"/><rect x="202.2" y="231.09" width="28.89" height="28.89" fill="#ffbed5"/><path d="M 202.2 231.09 A 28.89 28.89 0 0 0 231.08999999999997 259.98 L 231.08999999999997 231.09" fill="#ffedf4"/><rect x="173.31" y="259.97" width="28.89" height="28.89" fill="#fffafc"/><path d="M 173.31 288.86 A 28.89 28.89 0 0 1  202.2 259.97 L 173.31 288.86 A 28.89 28.89 0 0 0 202.2 259.97" fill="#ffc3d9"/><rect x="202.2" y="259.97" width="28.89" height="28.89" fill="#d6ecfe"/><path d="M 202.2 259.97 A 28.89 28.89 0 0 1  231.08999999999997 288.86 L 202.2 259.97 A 28.89 28.89 0 0 0 231.08999999999997 288.86" fill="#d5ebfe"/><rect x="231.08571428571426" y="231.08571428571426" width="57.771428571428565" height="57.771428571428565" fill="#ffffff"/><rect x="231.09" y="231.09" width="28.89" height="28.89" fill="#ffdae7"/><path d="M 231.09 259.98 A 28.89 28.89 0 0 0 259.98 231.09 L 231.09 231.09" fill="#ffedf4"/><rect x="259.97" y="231.09" width="28.89" height="28.89" fill="#eadff0"/><path d="M 259.97 259.98 A 28.89 28.89 0 0 1  288.86 231.09 L 288.86 259.98" fill="#fbfdff"/><rect x="231.09" y="259.97" width="28.89" height="28.89" fill="#fff7fa"/><path d="M 231.09 259.97 A 28.89 28.89 0 0 1  259.98 288.86 L 231.09 259.97 A 28.89 28.89 0 0 0 259.98 288.86" fill="#ffbed6"/><rect x="259.97" y="259.97" width="28.89" height="28.89" fill="#fafdff"/><path d="M 259.97 288.86 A 28.89 28.89 0 0 1  288.86 259.97 L 288.86 288.86" fill="#fff3f7"/><rect x="288.85714285714283" y="231.08571428571426" width="57.771428571428565" height="57.771428571428565" fill="#ffffff"/><rect x="288.86" y="231.09" width="28.89" height="28.89" fill="#ffbad3"/><path d="M 288.86 259.98 A 28.89 28.89 0 0 1  317.75 231.09 L 317.75 259.98" fill="#f8f4fa"/><rect x="317.74" y="231.09" width="28.89" height="28.89" fill="#ffccdf"/><path d="M 317.74 231.09 A 28.89 28.89 0 0 1  346.63 259.98 L 317.74 231.09 A 28.89 28.89 0 0 0 346.63 259.98" fill="#bee0fe"/><rect x="288.86" y="259.97" width="28.89" height="28.89" fill="#fffbfd"/><path d="M 288.86 259.97 A 28.89 28.89 0 0 1  317.75 288.86 L 288.86 259.97 A 28.89 28.89 0 0 0 317.75 288.86" fill="#d2bcdf"/><rect x="317.74" y="259.97" width="28.89" height="28.89" fill="#fff4f8"/><path d="M 317.74 288.86 A 28.89 28.89 0 0 1  346.63 259.97 L 317.74 288.86 A 28.89 28.89 0 0 0 346.63 259.97" fill="#dfcfe8"/><rect x="346.6285714285714" y="231.08571428571426" width="57.771428571428565" height="57.771428571428565" fill="#ffffff"/><rect x="346.63" y="231.09" width="28.89" height="28.89" fill="#c6e4fe"/><path d="M 346.63 231.09 A 28.89 28.89 0 0 0 375.52 259.98 L 375.52 231.09" fill="#cfe9fe"/><rect x="375.51" y="231.09" width="28.89" height="28.89" fill="#f0e8f4"/><path d="M 375.51 259.98 A 28.89 28.89 0 0 0 404.4 231.09 L 375.51 231.09" fill="#ffd9e7"/><rect x="346.63" y="259.97" width="28.89" height="28.89" fill="#fff6f9"/><path d="M 346.63 259.97 A 28.89 28.89 0 0 1 375.52 288.86 L 346.63 288.86" fill="#ffdeea"/><rect x="375.51" y="259.97" width="28.89" height="28.89" fill="#fff0f6"/><path d="M 375.51 288.86 A 28.89 28.89 0 0 1  404.4 259.97 L 375.51 288.86 A 28.89 28.89 0 0 0 404.4 259.97" fill="#fffefe"/><rect x="404.4" y="231.08571428571426" width="57.771428571428565" height="57.771428571428565" fill="#ffffff"/><rect x="404.4" y="231.09" width="28.89" height="28.89" fill="#eef7ff"/><path d="M 404.4 259.98 A 28.89 28.89 0 0 0 433.28999999999996 231.09 L 404.4 231.09" fill="#ece2f1"/><rect x="433.29" y="231.09" width="28.89" height="28.89" fill="#ffeef4"/><path d="M 433.29 231.09 A 28.89 28.89 0 0 1  462.18 259.98 L 433.29 231.09 A 28.89 28.89 0 0 0 462.18 259.98" fill="#d5c0e1"/><rect x="404.4" y="259.97" width="28.89" height="28.89" fill="#fcfeff"/><path d="M 404.4 259.97 A 28.89 28.89 0 0 0 433.28999999999996 288.86 L 433.28999999999996 259.97" fill="#fff4f8"/><rect x="433.29" y="259.97" width="28.89" height="28.89" fill="#eaf5ff"/><path d="M 433.29 259.97 A 28.89 28.89 0 0 0 462.18 288.86 L 462.18 259.97" fill="#ffcee0"/><rect x="462.17" y="231.09" width="57.77" height="57.77" fill="#f7fbff"/><path d="M 462.17 288.86 A 57.77 57.77 0 0 0 519.94 231.09 L 462.17 231.09" fill="#c4e3fe"/><rect x="519.94" y="231.09" width="57.77" height="57.77" fill="#e4d7ec"/><path d="M 519.94 231.09 A 57.77 57.77 0 0 0 577.71 288.86 L 577.71 231.09" fill="#e9f5ff"/><rect x="577.7142857142857" y="231.08571428571426" width="57.771428571428565" height="57.771428571428565" fill="#ffffff"/><rect x="577.71" y="231.09" width="28.89" height="28.89" fill="#eee5f3"/><path d="M 577.71 259.98 A 28.89 28.89 0 0 1  606.6 231.09 L 606.6 259.98" fill="#ffb9d2"/><rect x="606.6" y="231.09" width="28.89" height="28.89" fill="#e2d3ea"/><path d="M 606.6 259.98 A 28.89 28.89 0 0 1  635.49 231.09 L 635.49 259.98" fill="#ffd4e4"/><rect x="577.71" y="259.97" width="28.89" height="28.89" fill="#fff0f6"/><path d="M 577.71 259.97 A 28.89 28.89 0 0 1 606.6 288.86 L 577.71 288.86" fill="#ffedf3"/><rect x="606.6" y="259.97" width="28.89" height="28.89" fill="#ffcde0"/><path d="M 606.6 259.97 A 28.89 28.89 0 0 1 635.49 288.86 L 606.6 288.86" fill="#ffecf3"/><rect x="635.4857142857143" y="231.08571428571426" width="57.771428571428565" height="57.771428571428565" fill="#ffffff"/><rect x="635.49" y="231.09" width="28.89" height="28.89" fill="#ffd9e7"/><path d="M 635.49 231.09 A 28.89 28.89 0 0 1  664.38 259.98 L 635.49 231.09 A 28.89 28.89 0 0 0 664.38 259.98" fill="#c9e6fe"/><rect x="664.37" y="231.09" width="28.89" height="28.89" fill="#faf8fb"/><path d="M 664.37 259.98 A 28.89 28.89 0 0 0 693.26 231.09 L 664.37 231.09" fill="#e0d0e9"/><rect x="635.49" y="259.97" width="28.89" height="28.89" fill="#d6c2e2"/><path d="M 635.49 259.97 A 28.89 28.89 0 0 1  664.38 288.86 L 635.49 259.97 A 28.89 28.89 0 0 0 664.38 288.86" fill="#d8ecfe"/><rect x="664.37" y="259.97" width="28.89" height="28.89" fill="#ffedf4"/><path d="M 664.37 259.97 A 28.89 28.89 0 0 1  693.26 288.86 L 664.37 259.97 A 28.89 28.89 0 0 0 693.26 288.86" fill="#ffd4e3"/><rect x="0" y="288.86" width="57.77" height="57.77" fill="#ffe5ee"/><path d="M 0 346.63 A 57.77 57.77 0 0 0 57.77 288.86 L 0 288.86" fill="#ffc4d9"/><rect x="57.771428571428565" y="288.85714285714283" width="57.771428571428565" height="57.771428571428565" fill="#ffffff"/><rect x="57.77" y="288.86" width="28.89" height="28.89" fill="#fdfeff"/><path d="M 57.77 317.75 A 28.89 28.89 0 0 0 86.66 288.86 L 57.77 288.86" fill="#ffe9f1"/><rect x="86.66" y="288.86" width="28.89" height="28.89" fill="#fffbfc"/><path d="M 86.66 317.75 A 28.89 28.89 0 0 1  115.55 288.86 L 115.55 317.75" fill="#fffafc"/><rect x="57.77" y="317.74" width="28.89" height="28.89" fill="#e5f3ff"/><path d="M 57.77 317.74 A 28.89 28.89 0 0 0 86.66 346.63 L 86.66 317.74" fill="#ffcee1"/><rect x="86.66" y="317.74" width="28.89" height="28.89" fill="#ffe7f0"/><path d="M 86.66 346.63 A 28.89 28.89 0 0 1  115.55 317.74 L 115.55 346.63" fill="#ffbdd5"/><rect x="115.54" y="288.86" width="57.77" height="57.77" fill="#f8fcff"/><path d="M 115.54 288.86 A 57.77 57.77 0 0 0 173.31 346.63 L 173.31 288.86" fill="#eee5f3"/><rect x="173.31" y="288.86" width="57.77" height="57.77" fill="#ffdbe8"/><path d="M 173.31 288.86 A 57.77 57.77 0 0 1  231.08 346.63 L 173.31 288.86 A 57.77 57.77 0 0 0 231.08 346.63" fill="#d5ebfe"/><rect x="231.08571428571426" y="288.85714285714283" width="57.771428571428565" height="57.771428571428565" fill="#ffffff"/><rect x="231.09" y="288.86" width="28.89" height="28.89" fill="#e3f2ff"/><path d="M 231.09 288.86 A 28.89 28.89 0 0 1 259.98 317.75 L 231.09 317.75" fill="#ffc4d9"/><rect x="259.97" y="288.86" width="28.89" height="28.89" fill="#fcfbfd"/><path d="M 259.97 317.75 A 28.89 28.89 0 0 0 288.86 288.86 L 259.97 288.86" fill="#fff0f6"/><rect x="231.09" y="317.74" width="28.89" height="28.89" fill="#f5f1f8"/><path d="M 231.09 317.74 A 28.89 28.89 0 0 1 259.98 346.63 L 231.09 346.63" fill="#ffdbe9"/><rect x="259.97" y="317.74" width="28.89" height="28.89" fill="#e4d6eb"/><path d="M 259.97 346.63 A 28.89 28.89 0 0 1  288.86 317.74 L 259.97 346.63 A 28.89 28.89 0 0 0 288.86 317.74" fill="#dceffe"/><rect x="288.86" y="288.86" width="57.77" height="57.77" fill="#d0b9dd"/><path d="M 288.86 288.86 A 57.77 57.77 0 0 1 346.63 346.63 L 288.86 346.63" fill="#ffddea"/><rect x="346.63" y="288.86" width="57.77" height="57.77" fill="#fefdfe"/><path d="M 346.63 288.86 A 57.77 57.77 0 0 1 404.4 346.63 L 346.63 346.63" fill="#e8dcee"/><rect x="404.4" y="288.85714285714283" width="57.771428571428565" height="57.771428571428565" fill="#ffffff"/><rect x="404.4" y="288.86" width="28.89" height="28.89" fill="#d7c3e2"/><path d="M 404.4 288.86 A 28.89 28.89 0 0 1 433.28999999999996 317.75 L 404.4 317.75" fill="#ffcddf"/><rect x="433.29" y="288.86" width="28.89" height="28.89" fill="#fbf8fc"/><path d="M 433.29 288.86 A 28.89 28.89 0 0 1 462.18 317.75 L 433.29 317.75" fill="#ffdbe9"/><rect x="404.4" y="317.74" width="28.89" height="28.89" fill="#ffb5d0"/><path d="M 404.4 317.74 A 28.89 28.89 0 0 1 433.28999999999996 346.63 L 404.4 346.63" fill="#fff4f8"/><rect x="433.29" y="317.74" width="28.89" height="28.89" fill="#e0d0e8"/><path d="M 433.29 346.63 A 28.89 28.89 0 0 0 462.18 317.74 L 433.29 317.74" fill="#fff6fa"/><rect x="462.17" y="288.86" width="57.77" height="57.77" fill="#ffd5e4"/><path d="M 462.17 346.63 A 57.77 57.77 0 0 1  519.94 288.86 L 462.17 346.63 A 57.77 57.77 0 0 0 519.94 288.86" fill="#ffdfea"/><rect x="519.94" y="288.86" width="57.77" height="57.77" fill="#ffd5e4"/><path d="M 519.94 288.86 A 57.77 57.77 0 0 0 577.71 346.63 L 577.71 288.86" fill="#ffbdd5"/><rect x="577.71" y="288.86" width="57.77" height="57.77" fill="#f0e8f4"/><path d="M 577.71 346.63 A 57.77 57.77 0 0 1  635.48 288.86 L 635.48 346.63" fill="#e4f2ff"/><rect x="635.4857142857143" y="288.85714285714283" width="57.771428571428565" height="57.771428571428565" fill="#ffffff"/><rect x="635.49" y="288.86" width="28.89" height="28.89" fill="#ffe1ec"/><path d="M 635.49 288.86 A 28.89 28.89 0 0 1 664.38 317.75 L 635.49 317.75" fill="#f7fbff"/><rect x="664.37" y="288.86" width="28.89" height="28.89" fill="#ffd1e3"/><path d="M 664.37 317.75 A 28.89 28.89 0 0 1  693.26 288.86 L 664.37 317.75 A 28.89 28.89 0 0 0 693.26 288.86" fill="#fefefe"/><rect x="635.49" y="317.74" width="28.89" height="28.89" fill="#ffe8f0"/><path d="M 635.49 317.74 A 28.89 28.89 0 0 1  664.38 346.63 L 635.49 317.74 A 28.89 28.89 0 0 0 664.38 346.63" fill="#ffd5e4"/><rect x="664.37" y="317.74" width="28.89" height="28.89" fill="#e7dbee"/><path d="M 664.37 317.74 A 28.89 28.89 0 0 0 693.26 346.63 L 693.26 317.74" fill="#e8dcee"/><rect x="0" y="346.63" width="57.77" height="57.77" fill="#d8edfe"/><path d="M 0 346.63 A 57.77 57.77 0 0 0 57.77 404.4 L 57.77 346.63" fill="#ffcde0"/><rect x="57.771428571428565" y="346.6285714285714" width="57.771428571428565" height="57.771428571428565" fill="#ffffff"/><rect x="57.77" y="346.63" width="28.89" height="28.89" fill="#c3e3fe"/><path d="M 57.77 375.52 A 28.89 28.89 0 0 1  86.66 346.63 L 86.66 375.52" fill="#ffcce0"/><rect x="86.66" y="346.63" width="28.89" height="28.89" fill="#fff2f7"/><path d="M 86.66 375.52 A 28.89 28.89 0 0 1  115.55 346.63 L 86.66 375.52 A 28.89 28.89 0 0 0 115.55 346.63" fill="#dbc9e5"/><rect x="57.77" y="375.51" width="28.89" height="28.89" fill="#dfcfe8"/><path d="M 57.77 404.4 A 28.89 28.89 0 0 1  86.66 375.51 L 86.66 404.4" fill="#fbf9fc"/><rect x="86.66" y="375.51" width="28.89" height="28.89" fill="#ffd3e3"/><path d="M 86.66 404.4 A 28.89 28.89 0 0 0 115.55 375.51 L 86.66 375.51" fill="#ffd0e2"/><rect x="115.54285714285713" y="346.6285714285714" width="57.771428571428565" height="57.771428571428565" fill="#ffffff"/><rect x="115.54" y="346.63" width="28.89" height="28.89" fill="#ffe0ec"/><path d="M 115.54 346.63 A 28.89 28.89 0 0 0 144.43 375.52 L 144.43 346.63" fill="#f7f4fa"/><rect x="144.43" y="346.63" width="28.89" height="28.89" fill="#ffffff"/><path d="M 144.43 346.63 A 28.89 28.89 0 0 1 173.32 375.52 L 144.43 375.52" fill="#f2ebf6"/><rect x="115.54" y="375.51" width="28.89" height="28.89" fill="#d1e9fe"/><path d="M 115.54 404.4 A 28.89 28.89 0 0 1  144.43 375.51 L 144.43 404.4" fill="#d4bee0"/><rect x="144.43" y="375.51" width="28.89" height="28.89" fill="#fff1f6"/><path d="M 144.43 375.51 A 28.89 28.89 0 0 1 173.32 404.4 L 144.43 404.4" fill="#fafdff"/><rect x="173.31" y="346.63" width="57.77" height="57.77" fill="#ffc1d7"/><path d="M 173.31 404.4 A 57.77 57.77 0 0 0 231.08 346.63 L 173.31 346.63" fill="#ebe1f1"/><rect x="231.09" y="346.63" width="57.77" height="57.77" fill="#c7e5fe"/><path d="M 231.09 404.4 A 57.77 57.77 0 0 1  288.86 346.63 L 231.09 404.4 A 57.77 57.77 0 0 0 288.86 346.63" fill="#ffc8dd"/><rect x="288.85714285714283" y="346.6285714285714" width="57.771428571428565" height="57.771428571428565" fill="#ffffff"/><rect x="288.86" y="346.63" width="28.89" height="28.89" fill="#ffd3e4"/><path d="M 288.86 346.63 A 28.89 28.89 0 0 1  317.75 375.52 L 288.86 346.63 A 28.89 28.89 0 0 0 317.75 375.52" fill="#ddcbe6"/><rect x="317.74" y="346.63" width="28.89" height="28.89" fill="#eee5f3"/><path d="M 317.74 375.52 A 28.89 28.89 0 0 1  346.63 346.63 L 317.74 375.52 A 28.89 28.89 0 0 0 346.63 346.63" fill="#fff1f6"/><rect x="288.86" y="375.51" width="28.89" height="28.89" fill="#eae0f0"/><path d="M 288.86 375.51 A 28.89 28.89 0 0 0 317.75 404.4 L 317.75 375.51" fill="#c2e2fe"/><rect x="317.74" y="375.51" width="28.89" height="28.89" fill="#ffbfd6"/><path d="M 317.74 375.51 A 28.89 28.89 0 0 1 346.63 404.4 L 317.74 404.4" fill="#ffd5e4"/><rect x="346.6285714285714" y="346.6285714285714" width="57.771428571428565" height="57.771428571428565" fill="#ffffff"/><rect x="346.63" y="346.63" width="28.89" height="28.89" fill="#eef7ff"/><path d="M 346.63 375.52 A 28.89 28.89 0 0 1  375.52 346.63 L 346.63 375.52 A 28.89 28.89 0 0 0 375.52 346.63" fill="#fff0f6"/><rect x="375.51" y="346.63" width="28.89" height="28.89" fill="#decee7"/><path d="M 375.51 375.52 A 28.89 28.89 0 0 1  404.4 346.63 L 404.4 375.52" fill="#fff2f7"/><rect x="346.63" y="375.51" width="28.89" height="28.89" fill="#ffb3cf"/><path d="M 346.63 375.51 A 28.89 28.89 0 0 0 375.52 404.4 L 375.52 375.51" fill="#fff8fb"/><rect x="375.51" y="375.51" width="28.89" height="28.89" fill="#d9c6e4"/><path d="M 375.51 404.4 A 28.89 28.89 0 0 0 404.4 375.51 L 375.51 375.51" fill="#ffe6f0"/><rect x="404.4" y="346.63" width="57.77" height="57.77" fill="#ffd2e3"/><path d="M 404.4 346.63 A 57.77 57.77 0 0 1 462.16999999999996 404.4 L 404.4 404.4" fill="#f5eff7"/><rect x="462.17" y="346.63" width="57.77" height="57.77" fill="#ffe2ed"/><path d="M 462.17 346.63 A 57.77 57.77 0 0 1 519.94 404.4 L 462.17 404.4" fill="#f8fcff"/><rect x="519.9428571428571" y="346.6285714285714" width="57.771428571428565" height="57.771428571428565" fill="#ffffff"/><rect x="519.94" y="346.63" width="28.89" height="28.89" fill="#d5ebfe"/><path d="M 519.94 346.63 A 28.89 28.89 0 0 1 548.83 375.52 L 519.94 375.52" fill="#ffcee1"/><rect x="548.83" y="346.63" width="28.89" height="28.89" fill="#ffd9e8"/><path d="M 548.83 346.63 A 28.89 28.89 0 0 0 577.72 375.52 L 577.72 346.63" fill="#ffdae8"/><rect x="519.94" y="375.51" width="28.89" height="28.89" fill="#eadff0"/><path d="M 519.94 404.4 A 28.89 28.89 0 0 0 548.83 375.51 L 519.94 375.51" fill="#ffdcea"/><rect x="548.83" y="375.51" width="28.89" height="28.89" fill="#dccae6"/><path d="M 548.83 404.4 A 28.89 28.89 0 0 1  577.72 375.51 L 577.72 404.4" fill="#d4bee0"/><rect x="577.71" y="346.63" width="57.77" height="57.77" fill="#ffe9f1"/><path d="M 577.71 346.63 A 57.77 57.77 0 0 1  635.48 404.4 L 577.71 346.63 A 57.77 57.77 0 0 0 635.48 404.4" fill="#fff2f7"/><rect x="635.4857142857143" y="346.6285714285714" width="57.771428571428565" height="57.771428571428565" fill="#ffffff"/><rect x="635.49" y="346.63" width="28.89" height="28.89" fill="#d5c0e1"/><path d="M 635.49 346.63 A 28.89 28.89 0 0 1  664.38 375.52 L 635.49 346.63 A 28.89 28.89 0 0 0 664.38 375.52" fill="#ffeff5"/><rect x="664.37" y="346.63" width="28.89" height="28.89" fill="#e1d2e9"/><path d="M 664.37 375.52 A 28.89 28.89 0 0 1  693.26 346.63 L 664.37 375.52 A 28.89 28.89 0 0 0 693.26 346.63" fill="#ffd4e4"/><rect x="635.49" y="375.51" width="28.89" height="28.89" fill="#ffc2d8"/><path d="M 635.49 404.4 A 28.89 28.89 0 0 1  664.38 375.51 L 635.49 404.4 A 28.89 28.89 0 0 0 664.38 375.51" fill="#d9edfe"/><rect x="664.37" y="375.51" width="28.89" height="28.89" fill="#fffdfe"/><path d="M 664.37 404.4 A 28.89 28.89 0 0 1  693.26 375.51 L 693.26 404.4" fill="#ede5f2"/></g></svg>