<?xml version="1.0" standalone="no"?><svg xmlns:xlink="http://www.w3.org/1999/xlink" xmlns="http://www.w3.org/2000/svg" viewBox="0 0 1900 1108.343724936399" preserveAspectRatio="xMaxYMax slice"><g transform="scale(2.1135463862250172)"><rect x="0" y="0" width="898.9714285714285" height="524.4" fill="#ffffff"/><rect x="0" y="0" width="74.91" height="74.91" fill="#fcdfbe"/><path d="M 0 0 A 74.91 74.91 0 0 1 74.91 74.91 L 0 74.91" fill="#cef0f5"/><rect x="74.91" y="0" width="74.91" height="74.91" fill="#456e9e"/><polygon points="74.91,0 149.82,0 74.91,74.91" fill="#6f8fb4"/><rect x="149.83" y="0" width="74.91" height="74.91" fill="#fde9dd"/><path d="M 149.83 74.91 A 74.91 74.91 0 0 1  224.74 0 L 149.83 74.91 A 74.91 74.91 0 0 0 224.74 0" fill="#5479a6"/><rect x="224.74" y="0" width="74.91" height="74.91" fill="#9eb3cc"/><polygon points="224.74,0 299.65,74.91 224.74,74.91" fill="#71d4e2"/><rect x="299.66" y="0" width="74.91" height="74.91" fill="#74d5e2"/><polygon points="299.66,0 374.57000000000005,74.91 299.66,74.91" fill="#b9e5d8"/><rect x="374.57" y="0" width="74.91" height="74.91" fill="#f5fcfd"/><rect x="374.57" y="0" width="74.91" height="74.91" fill="#fde6d9"/><rect x="449.49" y="0" width="74.91" height="74.91" fill="#00b2ca"/><path d="M 449.49 0 A 74.91 74.91 0 0 1 524.4 74.91 L 449.49 74.91" fill="#d5dee9"/><rect x="524.4" y="0" width="74.91" height="74.91" fill="#fcfefe"/><rect x="524.4" y="0" width="74.91" height="74.91" fill="#1d4e89"/><rect x="599.31" y="0" width="74.91" height="74.91" fill="#6dd3e1"/><polygon points="599.31,0 674.2199999999999,0 599.31,74.91" fill="#bbe6d9"/><rect x="674.23" y="0" width="74.91" height="74.91" fill="#fdebd6"/><polygon points="674.23,0 749.14,0 674.23,74.91" fill="#85dae6"/><rect x="749.14" y="0" width="74.91" height="74.91" fill="#a9dfcf"/><rect x="749.14" y="0" width="74.91" height="74.91" fill="#fcdbc7"/><rect x="824.06" y="0" width="74.91" height="74.91" fill="#e3e9f0"/><rect x="824.06" y="0" width="74.91" height="74.91" fill="#fde0cf"/><rect x="0" y="74.91" width="74.91" height="74.91" fill="#def3ed"/><polygon points="0,74.91 74.91,74.91 0,149.82" fill="#f7975e"/><rect x="74.91" y="74.91" width="74.91" height="74.91" fill="#fce1c2"/><polygon points="74.91,74.91 149.82,74.91 149.82,149.82" fill="#bde7da"/><rect x="149.83" y="74.91" width="74.91" height="74.91" fill="#426b9c"/><rect x="149.83" y="74.91" width="74.91" height="74.91" fill="#fabe9a"/><rect x="224.74" y="74.91" width="74.91" height="74.91" fill="#5f82ac"/><rect x="224.74" y="74.91" width="74.91" height="74.91" fill="#80d9e5"/><rect x="299.66" y="74.91" width="74.91" height="74.91" fill="#698ab1"/><rect x="299.66" y="74.91" width="74.91" height="74.91" fill="#fbcbaf"/><rect x="374.57" y="74.91" width="74.91" height="74.91" fill="#fef2e4"/><polygon points="374.57,74.91 449.48,74.91 449.48,149.82" fill="#cef0f5"/><rect x="449.49" y="74.91" width="74.91" height="74.91" fill="#d6f3f6"/><path d="M 449.49 149.82 A 74.91 74.91 0 0 1  524.4 74.91 L 449.49 149.82 A 74.91 74.91 0 0 0 524.4 74.91" fill="#dff3ed"/><rect x="524.4" y="74.91" width="74.91" height="74.91" fill="#f2faf8"/><path d="M 524.4 149.82 A 74.91 74.91 0 0 1  599.31 74.91 L 524.4 149.82 A 74.91 74.91 0 0 0 599.31 74.91" fill="#fef0e0"/><rect x="599.31" y="74.91" width="74.91" height="74.91" fill="#fcd5be"/><path d="M 599.31 74.91 A 74.91 74.91 0 0 1 674.2199999999999 149.82 L 599.31 149.82" fill="#fbc4a3"/><rect x="674.23" y="74.91" width="74.91" height="74.91" fill="#fdebd7"/><rect x="674.23" y="74.91" width="74.91" height="74.91" fill="#2c5a91"/><rect x="749.14" y="74.91" width="74.91" height="74.91" fill="#81d0b8"/><path d="M 749.14 149.82 A 74.91 74.91 0 0 0 824.05 74.91 L 749.14 74.91" fill="#fef0e2"/><rect x="824.06" y="74.91" width="74.91" height="74.91" fill="#98d9c5"/><path d="M 824.06 149.82 A 74.91 74.91 0 0 1  898.9699999999999 74.91 L 824.06 149.82 A 74.91 74.91 0 0 0 898.9699999999999 74.91" fill="#fde3c7"/><rect x="0" y="149.83" width="74.91" height="74.91" fill="#1f4f8a"/><path d="M 0 224.74 A 74.91 74.91 0 0 0 74.91 149.83 L 0 149.83" fill="#a2b6cf"/><rect x="74.91" y="149.83" width="74.91" height="74.91" fill="#dff5f8"/><rect x="74.91" y="149.83" width="74.91" height="74.91" fill="#fef8f4"/><rect x="149.83" y="149.83" width="74.91" height="74.91" fill="#35c2d5"/><rect x="149.83" y="149.83" width="74.91" height="74.91" fill="#e8f7f2"/><rect x="224.74" y="149.83" width="74.91" height="74.91" fill="#89d4bd"/><polygon points="299.65,149.83 299.65,224.74 224.74,224.74" fill="#fef2ea"/><rect x="299.66" y="149.83" width="74.91" height="74.91" fill="#b9e5d8"/><polygon points="299.66,149.83 374.57000000000005,224.74 299.66,224.74" fill="#e1f6f9"/><rect x="374.57" y="149.83" width="74.91" height="74.91" fill="#4dc9da"/><rect x="374.57" y="149.83" width="74.91" height="74.91" fill="#f8a573"/><rect x="449.49" y="149.83" width="74.91" height="74.91" fill="#ddf3ec"/><path d="M 449.49 149.83 A 74.91 74.91 0 0 0 524.4 224.74 L 524.4 149.83" fill="#fcd9b2"/><rect x="524.4" y="149.83" width="74.91" height="74.91" fill="#5f82ac"/><path d="M 524.4 224.74 A 74.91 74.91 0 0 1  599.31 149.83 L 524.4 224.74 A 74.91 74.91 0 0 0 599.31 149.83" fill="#fde6cc"/><rect x="599.31" y="149.83" width="74.91" height="74.91" fill="#fef8f3"/><rect x="599.31" y="149.83" width="74.91" height="74.91" fill="#fafdfc"/><rect x="674.23" y="149.83" width="74.91" height="74.91" fill="#fffcfa"/><polygon points="674.23,149.83 749.14,224.74 674.23,224.74" fill="#fffaf5"/><rect x="749.14" y="149.83" width="74.91" height="74.91" fill="#2b5990"/><path d="M 749.14 149.83 A 74.91 74.91 0 0 1 824.05 224.74 L 749.14 224.74" fill="#fcd8b1"/><rect x="824.06" y="149.83" width="74.91" height="74.91" fill="#08b5cc"/><path d="M 824.06 224.74 A 74.91 74.91 0 0 1  898.9699999999999 149.83 L 824.06 224.74 A 74.91 74.91 0 0 0 898.9699999999999 149.83" fill="#8ddde7"/><rect x="0" y="224.74" width="74.91" height="74.91" fill="#ceede3"/><rect x="0" y="224.74" width="74.91" height="74.91" fill="#99e0ea"/><rect x="74.91" y="224.74" width="74.91" height="74.91" fill="#dae2ec"/><path d="M 74.91 224.74 A 74.91 74.91 0 0 0 149.82 299.65 L 149.82 224.74" fill="#b1e7ef"/><rect x="149.83" y="224.74" width="74.91" height="74.91" fill="#bfcddd"/><path d="M 149.83 299.65 A 74.91 74.91 0 0 1  224.74 224.74 L 224.74 299.65" fill="#5acddd"/><rect x="224.74" y="224.74" width="74.91" height="74.91" fill="#7492b7"/><polygon points="299.65,224.74 299.65,299.65 224.74,299.65" fill="#baeaf1"/><rect x="299.66" y="224.74" width="74.91" height="74.91" fill="#fbc3a2"/><rect x="299.66" y="224.74" width="74.91" height="74.91" fill="#f0fafc"/><rect x="374.57" y="224.74" width="74.91" height="74.91" fill="#0bb5cc"/><path d="M 374.57 224.74 A 74.91 74.91 0 0 1  449.48 299.65 L 374.57 224.74 A 74.91 74.91 0 0 0 449.48 299.65" fill="#fcd8b0"/><rect x="449.49" y="224.74" width="74.91" height="74.91" fill="#fffbf6"/><polygon points="524.4,224.74 524.4,299.65 449.49,299.65" fill="#f5fbf9"/><rect x="524.4" y="224.74" width="74.91" height="74.91" fill="#9fdcc9"/><polygon points="524.4,224.74 599.31,224.74 599.31,299.65" fill="#a0b4cd"/><rect x="599.31" y="224.74" width="74.91" height="74.91" fill="#1fbbd0"/><path d="M 599.31 224.74 A 74.91 74.91 0 0 0 674.2199999999999 299.65 L 674.2199999999999 224.74" fill="#fffdfc"/><rect x="674.23" y="224.74" width="74.91" height="74.91" fill="#fbfefe"/><rect x="674.23" y="224.74" width="74.91" height="74.91" fill="#88d3bc"/><rect x="749.14" y="224.74" width="74.91" height="74.91" fill="#fbd6ad"/><polygon points="749.14,224.74 824.05,224.74 824.05,299.65" fill="#fafbfc"/><rect x="824.06" y="224.74" width="74.91" height="74.91" fill="#fef5f0"/><rect x="824.06" y="224.74" width="74.91" height="74.91" fill="#fef6ed"/><rect x="0" y="299.66" width="74.91" height="74.91" fill="#bfe7db"/><rect x="0" y="299.66" width="74.91" height="74.91" fill="#fbd4a9"/><rect x="74.91" y="299.66" width="74.91" height="74.91" fill="#fabc97"/><path d="M 74.91 299.66 A 74.91 74.91 0 0 0 149.82 374.57000000000005 L 149.82 299.66" fill="#92d7c2"/><rect x="149.83" y="299.66" width="74.91" height="74.91" fill="#3b6599"/><rect x="149.83" y="299.66" width="74.91" height="74.91" fill="#e4eaf1"/><rect x="224.74" y="299.66" width="74.91" height="74.91" fill="#fffdfc"/><path d="M 224.74 374.57000000000005 A 74.91 74.91 0 0 1  299.65 299.66 L 299.65 374.57000000000005" fill="#f5fbf9"/><rect x="299.66" y="299.66" width="74.91" height="74.91" fill="#6c8bb2"/><path d="M 299.66 299.66 A 74.91 74.91 0 0 1 374.57000000000005 374.57000000000005 L 299.66 374.57000000000005" fill="#fbfefd"/><rect x="374.57" y="299.66" width="74.91" height="74.91" fill="#fffbf7"/><rect x="374.57" y="299.66" width="74.91" height="74.91" fill="#f89961"/><rect x="449.49" y="299.66" width="74.91" height="74.91" fill="#88d3bc"/><polygon points="449.49,299.66 524.4,299.66 524.4,374.57000000000005" fill="#819dbd"/><rect x="524.4" y="299.66" width="74.91" height="74.91" fill="#d9f1ea"/><polygon points="524.4,299.66 599.31,299.66 524.4,374.57000000000005" fill="#20508a"/><rect x="599.31" y="299.66" width="74.91" height="74.91" fill="#557aa6"/><rect x="599.31" y="299.66" width="74.91" height="74.91" fill="#fcd8c3"/><rect x="674.23" y="299.66" width="74.91" height="74.91" fill="#90a8c5"/><rect x="674.23" y="299.66" width="74.91" height="74.91" fill="#01b2ca"/><rect x="749.14" y="299.66" width="74.91" height="74.91" fill="#eaf7f3"/><polygon points="749.14,299.66 824.05,299.66 749.14,374.57000000000005" fill="#335f94"/><rect x="824.06" y="299.66" width="74.91" height="74.91" fill="#fbceb4"/><polygon points="824.06,299.66 898.9699999999999,299.66 898.9699999999999,374.57000000000005" fill="#55ccdc"/><rect x="0" y="374.57" width="74.91" height="74.91" fill="#0bb5cc"/><path d="M 0 449.48 A 74.91 74.91 0 0 1  74.91 374.57 L 74.91 449.48" fill="#85d2bb"/><rect x="74.91" y="374.57" width="74.91" height="74.91" fill="#6ad2e0"/><path d="M 74.91 449.48 A 74.91 74.91 0 0 1  149.82 374.57 L 74.91 449.48 A 74.91 74.91 0 0 0 149.82 374.57" fill="#18b9cf"/><rect x="149.83" y="374.57" width="74.91" height="74.91" fill="#c6d2e1"/><path d="M 149.83 374.57 A 74.91 74.91 0 0 0 224.74 449.48 L 224.74 374.57" fill="#d0eee5"/><rect x="224.74" y="374.57" width="74.91" height="74.91" fill="#fbc7a8"/><polygon points="224.74,374.57 299.65,374.57 224.74,449.48" fill="#d0ede4"/><rect x="299.66" y="374.57" width="74.91" height="74.91" fill="#99afca"/><rect x="299.66" y="374.57" width="74.91" height="74.91" fill="#fcdebd"/><rect x="374.57" y="374.57" width="74.91" height="74.91" fill="#fef5eb"/><path d="M 374.57 374.57 A 74.91 74.91 0 0 0 449.48 449.48 L 449.48 374.57" fill="#fab992"/><rect x="449.49" y="374.57" width="74.91" height="74.91" fill="#a8dfce"/><path d="M 449.49 374.57 A 74.91 74.91 0 0 0 524.4 449.48 L 524.4 374.57" fill="#b0e7ef"/><rect x="524.4" y="374.57" width="74.91" height="74.91" fill="#eff3f7"/><polygon points="599.31,374.57 599.31,449.48 524.4,449.48" fill="#05b4cb"/><rect x="599.31" y="374.57" width="74.91" height="74.91" fill="#3a6598"/><rect x="599.31" y="374.57" width="74.91" height="74.91" fill="#4ac8d9"/><rect x="674.23" y="374.57" width="74.91" height="74.91" fill="#6ad2e0"/><path d="M 674.23 449.48 A 74.91 74.91 0 0 1  749.14 374.57 L 749.14 449.48" fill="#abe6ed"/><rect x="749.14" y="374.57" width="74.91" height="74.91" fill="#d6f0e8"/><rect x="749.14" y="374.57" width="74.91" height="74.91" fill="#fef3ed"/><rect x="824.06" y="374.57" width="74.91" height="74.91" fill="#fbc2a0"/><rect x="824.06" y="374.57" width="74.91" height="74.91" fill="#fbcfb4"/><rect x="0" y="449.49" width="74.91" height="74.91" fill="#1e4f89"/><path d="M 0 449.49 A 74.91 74.91 0 0 0 74.91 524.4 L 74.91 449.49" fill="#fff8f5"/><rect x="74.91" y="449.49" width="74.91" height="74.91" fill="#8ed5c0"/><rect x="74.91" y="449.49" width="74.91" height="74.91" fill="#fabe9a"/><rect x="149.83" y="449.49" width="74.91" height="74.91" fill="#fdedda"/><path d="M 149.83 524.4 A 74.91 74.91 0 0 1  224.74 449.49 L 224.74 524.4" fill="#f7975e"/><rect x="224.74" y="449.49" width="74.91" height="74.91" fill="#cdede3"/><path d="M 224.74 449.49 A 74.91 74.91 0 0 0 299.65 524.4 L 299.65 449.49" fill="#fdfefe"/><rect x="299.66" y="449.49" width="74.91" height="74.91" fill="#aebfd5"/><polygon points="299.66,449.49 374.57000000000005,449.49 374.57000000000005,524.4" fill="#6486ae"/><rect x="374.57" y="449.49" width="74.91" height="74.91" fill="#81d1b8"/><rect x="374.57" y="449.49" width="74.91" height="74.91" fill="#fcddb9"/><rect x="449.49" y="449.49" width="74.91" height="74.91" fill="#436c9d"/><polygon points="449.49,449.49 524.4,449.49 449.49,524.4" fill="#587da8"/><rect x="524.4" y="449.49" width="74.91" height="74.91" fill="#48709f"/><rect x="524.4" y="449.49" width="74.91" height="74.91" fill="#8ca5c3"/><rect x="599.31" y="449.49" width="74.91" height="74.91" fill="#2e5b92"/><path d="M 599.31 449.49 A 74.91 74.91 0 0 0 674.2199999999999 524.4 L 674.2199999999999 449.49" fill="#6788b0"/><rect x="674.23" y="449.49" width="74.91" height="74.91" fill="#ddf5f8"/><polygon points="749.14,449.49 749.14,524.4 674.23,524.4" fill="#afe1d2"/><rect x="749.14" y="449.49" width="74.91" height="74.91" fill="#fce2c5"/><rect x="749.14" y="449.49" width="74.91" height="74.91" fill="#fdeddb"/><rect x="824.06" y="449.49" width="74.91" height="74.91" fill="#fcfefd"/><path d="M 824.06 524.4 A 74.91 74.91 0 0 1  898.9699999999999 449.49 L 824.06 524.4 A 74.91 74.91 0 0 0 898.9699999999999 449.49" fill="#f7965c"/></g></svg>