<?xml version="1.0" standalone="no"?><svg xmlns:xlink="http://www.w3.org/1999/xlink" xmlns="http://www.w3.org/2000/svg" viewBox="0 0 1900 1108.3383399209486" preserveAspectRatio="xMaxYMax slice"><g transform="scale(2.4031620553359683)"><rect x="0" y="0" width="790.6285714285714" height="461.2" fill="#ffffff"/><rect x="0" y="0" width="65.89" height="65.89" fill="#eaeaea"/><rect x="0" y="0" width="65.89" height="65.89" fill="#ffffff"/><rect x="65.89" y="0" width="65.89" height="65.89" fill="#f8f8f8"/><path d="M 65.89 0 A 65.89 65.89 0 0 0 131.78 65.89 L 131.78 0" fill="#ffffff"/><rect x="131.77" y="0" width="65.89" height="65.89" fill="#888f9d"/><polygon points="131.77,0 197.66000000000003,0 197.66000000000003,65.89" fill="#d8d8d8"/><rect x="197.66" y="0" width="65.89" height="65.89" fill="#f0f0f0"/><rect x="197.66" y="0" width="65.89" height="65.89" fill="#090909"/><rect x="263.54" y="0" width="65.89" height="65.89" fill="#576074"/><polygon points="263.54,0 329.43,0 263.54,65.89" fill="#fdc871"/><rect x="329.43" y="0" width="65.89" height="65.89" fill="#9da3ae"/><rect x="329.43" y="0" width="65.89" height="65.89" fill="#fdc973"/><rect x="395.31" y="0" width="65.89" height="65.89" fill="#cdd0d6"/><path d="M 395.31 0 A 65.89 65.89 0 0 0 461.2 65.89 L 461.2 0" fill="#ffffff"/><rect x="461.2" y="0" width="65.89" height="65.89" fill="#f8f8f9"/><path d="M 461.2 65.89 A 65.89 65.89 0 0 1  527.09 0 L 461.2 65.89 A 65.89 65.89 0 0 0 527.09 0" fill="#f5f5f5"/><rect x="527.09" y="0" width="65.89" height="65.89" fill="#f0f0f0"/><path d="M 527.09 0 A 65.89 65.89 0 0 1  592.98 65.89 L 527.09 0 A 65.89 65.89 0 0 0 592.98 65.89" fill="#e5e5e5"/><rect x="592.97" y="0" width="65.89" height="65.89" fill="#fdcb77"/><path d="M 592.97 0 A 65.89 65.89 0 0 0 658.86 65.89 L 658.86 0" fill="#737b8b"/><rect x="658.86" y="0" width="65.89" height="65.89" fill="#fdbb4f"/><path d="M 658.86 65.89 A 65.89 65.89 0 0 0 724.75 0 L 658.86 0" fill="#454545"/><rect x="724.74" y="0" width="65.89" height="65.89" fill="#b8bcc5"/><path d="M 724.74 0 A 65.89 65.89 0 0 1 790.63 65.89 L 724.74 65.89" fill="#b1b1b1"/><rect x="0" y="65.89" width="65.89" height="65.89" fill="#f7f7f7"/><polygon points="65.89,65.89 65.89,131.78 0,131.78" fill="#ececec"/><rect x="65.89" y="65.89" width="65.89" height="65.89" fill="#8b919f"/><rect x="65.89" y="65.89" width="65.89" height="65.89" fill="#878d9c"/><rect x="131.77" y="65.89" width="65.89" height="65.89" fill="#fee3b6"/><rect x="131.77" y="65.89" width="65.89" height="65.89" fill="#f0f1f3"/><rect x="197.66" y="65.89" width="65.89" height="65.89" fill="#acb1bb"/><polygon points="197.66,65.89 263.55,65.89 263.55,131.78" fill="#2c2c2c"/><rect x="263.54" y="65.89" width="65.89" height="65.89" fill="#c9ccd3"/><rect x="263.54" y="65.89" width="65.89" height="65.89" fill="#181818"/><rect x="329.43" y="65.89" width="65.89" height="65.89" fill="#888e9d"/><rect x="329.43" y="65.89" width="65.89" height="65.89" fill="#bcbcbc"/><rect x="395.31" y="65.89" width="65.89" height="65.89" fill="#303c54"/><rect x="395.31" y="65.89" width="65.89" height="65.89" fill="#fed593"/><rect x="461.2" y="65.89" width="65.89" height="65.89" fill="#505050"/><polygon points="527.09,65.89 527.09,131.78 461.2,131.78" fill="#f3f3f3"/><rect x="527.09" y="65.89" width="65.89" height="65.89" fill="#f3f3f3"/><rect x="527.09" y="65.89" width="65.89" height="65.89" fill="#fffaf2"/><rect x="592.97" y="65.89" width="65.89" height="65.89" fill="#ffffff"/><path d="M 592.97 65.89 A 65.89 65.89 0 0 0 658.86 131.78 L 658.86 65.89" fill="#fed289"/><rect x="658.86" y="65.89" width="65.89" height="65.89" fill="#fdc262"/><polygon points="658.86,65.89 724.75,131.78 658.86,131.78" fill="#fdcd7d"/><rect x="724.74" y="65.89" width="65.89" height="65.89" fill="#ffffff"/><polygon points="724.74,65.89 790.63,65.89 790.63,131.78" fill="#f1f1f1"/><rect x="0" y="131.77" width="65.89" height="65.89" fill="#a4a9b4"/><rect x="0" y="131.77" width="65.89" height="65.89" fill="#f0f0f0"/><rect x="65.89" y="131.77" width="65.89" height="65.89" fill="#ffffff"/><path d="M 65.89 197.66000000000003 A 65.89 65.89 0 0 0 131.78 131.77 L 65.89 131.77" fill="#fdd086"/><rect x="131.77" y="131.77" width="65.89" height="65.89" fill="#fed797"/><rect x="131.77" y="131.77" width="65.89" height="65.89" fill="#c5c9cf"/><rect x="197.66" y="131.77" width="65.89" height="65.89" fill="#15223e"/><polygon points="263.55,131.77 263.55,197.66000000000003 197.66,197.66000000000003" fill="#ffffff"/><rect x="263.54" y="131.77" width="65.89" height="65.89" fill="#f0f0f0"/><path d="M 263.54 131.77 A 65.89 65.89 0 0 1  329.43 197.66000000000003 L 263.54 131.77 A 65.89 65.89 0 0 0 329.43 197.66000000000003" fill="#9ea4af"/><rect x="329.43" y="131.77" width="65.89" height="65.89" fill="#727a8b"/><path d="M 329.43 197.66000000000003 A 65.89 65.89 0 0 1  395.32 131.77 L 329.43 197.66000000000003 A 65.89 65.89 0 0 0 395.32 131.77" fill="#808080"/><rect x="395.31" y="131.77" width="65.89" height="65.89" fill="#ffffff"/><path d="M 395.31 197.66000000000003 A 65.89 65.89 0 0 1  461.2 131.77 L 395.31 197.66000000000003 A 65.89 65.89 0 0 0 461.2 131.77" fill="#ffffff"/><rect x="461.2" y="131.77" width="65.89" height="65.89" fill="#ffffff"/><path d="M 461.2 131.77 A 65.89 65.89 0 0 1  527.09 197.66000000000003 L 461.2 131.77 A 65.89 65.89 0 0 0 527.09 197.66000000000003" fill="#feeed4"/><rect x="527.09" y="131.77" width="65.89" height="65.89" fill="#ffffff"/><polygon points="527.09,131.77 592.98,131.77 592.98,197.66000000000003" fill="#fff6e8"/><rect x="592.97" y="131.77" width="65.89" height="65.89" fill="#e4e4e4"/><path d="M 592.97 197.66000000000003 A 65.89 65.89 0 0 1  658.86 131.77 L 658.86 197.66000000000003" fill="#e5e5e5"/><rect x="658.86" y="131.77" width="65.89" height="65.89" fill="#fcac29"/><path d="M 658.86 197.66000000000003 A 65.89 65.89 0 0 1  724.75 131.77 L 724.75 197.66000000000003" fill="#ebebeb"/><rect x="724.74" y="131.77" width="65.89" height="65.89" fill="#ffffff"/><path d="M 724.74 131.77 A 65.89 65.89 0 0 1 790.63 197.66000000000003 L 724.74 197.66000000000003" fill="#fee0ae"/><rect x="0" y="197.66" width="65.89" height="65.89" fill="#1d1d1d"/><rect x="0" y="197.66" width="65.89" height="65.89" fill="#fdc363"/><rect x="65.89" y="197.66" width="65.89" height="65.89" fill="#131313"/><rect x="65.89" y="197.66" width="65.89" height="65.89" fill="#ffffff"/><rect x="131.77" y="197.66" width="65.89" height="65.89" fill="#e9e9e9"/><path d="M 131.77 197.66 A 65.89 65.89 0 0 0 197.66000000000003 263.55 L 197.66000000000003 197.66" fill="#9096a4"/><rect x="197.66" y="197.66" width="65.89" height="65.89" fill="#28344d"/><polygon points="197.66,197.66 263.55,197.66 263.55,263.55" fill="#15223e"/><rect x="263.54" y="197.66" width="65.89" height="65.89" fill="#fdc973"/><rect x="263.54" y="197.66" width="65.89" height="65.89" fill="#ffffff"/><rect x="329.43" y="197.66" width="65.89" height="65.89" fill="#ffffff"/><path d="M 329.43 197.66 A 65.89 65.89 0 0 0 395.32 263.55 L 395.32 197.66" fill="#fff3e1"/><rect x="395.31" y="197.66" width="65.89" height="65.89" fill="#ffffff"/><rect x="395.31" y="197.66" width="65.89" height="65.89" fill="#fcfcfc"/><rect x="461.2" y="197.66" width="65.89" height="65.89" fill="#ffffff"/><polygon points="461.2,197.66 527.09,197.66 527.09,263.55" fill="#fdcf82"/><rect x="527.09" y="197.66" width="65.89" height="65.89" fill="#ffffff"/><polygon points="527.09,197.66 592.98,197.66 592.98,263.55" fill="#c9ccd3"/><rect x="592.97" y="197.66" width="65.89" height="65.89" fill="#e6e6e6"/><path d="M 592.97 263.55 A 65.89 65.89 0 0 1  658.86 197.66 L 658.86 263.55" fill="#ffffff"/><rect x="658.86" y="197.66" width="65.89" height="65.89" fill="#fca413"/><path d="M 658.86 197.66 A 65.89 65.89 0 0 1  724.75 263.55 L 658.86 197.66 A 65.89 65.89 0 0 0 724.75 263.55" fill="#333e56"/><rect x="724.74" y="197.66" width="65.89" height="65.89" fill="#0c0c0c"/><polygon points="724.74,197.66 790.63,263.55 724.74,263.55" fill="#b7b7b7"/><rect x="0" y="263.54" width="65.89" height="65.89" fill="#fffdf9"/><path d="M 0 329.43 A 65.89 65.89 0 0 0 65.89 263.54 L 0 263.54" fill="#787f90"/><rect x="65.89" y="263.54" width="65.89" height="65.89" fill="#a3a8b3"/><path d="M 65.89 329.43 A 65.89 65.89 0 0 1  131.78 263.54 L 65.89 329.43 A 65.89 65.89 0 0 0 131.78 263.54" fill="#f8f8f9"/><rect x="131.77" y="263.54" width="65.89" height="65.89" fill="#c0c4cb"/><rect x="131.77" y="263.54" width="65.89" height="65.89" fill="#f3f3f3"/><rect x="197.66" y="263.54" width="65.89" height="65.89" fill="#fff9ef"/><polygon points="197.66,263.54 263.55,329.43 197.66,329.43" fill="#5f5f5f"/><rect x="263.54" y="263.54" width="65.89" height="65.89" fill="#f8f8f8"/><rect x="263.54" y="263.54" width="65.89" height="65.89" fill="#5a5a5a"/><rect x="329.43" y="263.54" width="65.89" height="65.89" fill="#8d8d8d"/><path d="M 329.43 329.43 A 65.89 65.89 0 0 1  395.32 263.54 L 395.32 329.43" fill="#eaeaea"/><rect x="395.31" y="263.54" width="65.89" height="65.89" fill="#6e7688"/><rect x="395.31" y="263.54" width="65.89" height="65.89" fill="#b0b0b0"/><rect x="461.2" y="263.54" width="65.89" height="65.89" fill="#c8c8c8"/><polygon points="461.2,263.54 527.09,263.54 527.09,329.43" fill="#182440"/><rect x="527.09" y="263.54" width="65.89" height="65.89" fill="#3a455c"/><path d="M 527.09 263.54 A 65.89 65.89 0 0 0 592.98 329.43 L 592.98 263.54" fill="#5b5b5b"/><rect x="592.97" y="263.54" width="65.89" height="65.89" fill="#eff0f2"/><rect x="592.97" y="263.54" width="65.89" height="65.89" fill="#838383"/><rect x="658.86" y="263.54" width="65.89" height="65.89" fill="#b1b1b1"/><path d="M 658.86 329.43 A 65.89 65.89 0 0 1  724.75 263.54 L 658.86 329.43 A 65.89 65.89 0 0 0 724.75 263.54" fill="#475167"/><rect x="724.74" y="263.54" width="65.89" height="65.89" fill="#ffffff"/><path d="M 724.74 329.43 A 65.89 65.89 0 0 0 790.63 263.54 L 724.74 263.54" fill="#ffffff"/><rect x="0" y="329.43" width="65.89" height="65.89" fill="#fee3b7"/><path d="M 0 395.32 A 65.89 65.89 0 0 0 65.89 329.43 L 0 329.43" fill="#454f65"/><rect x="65.89" y="329.43" width="65.89" height="65.89" fill="#fcfcfc"/><polygon points="65.89,329.43 131.78,395.32 65.89,395.32" fill="#f1f1f1"/><rect x="131.77" y="329.43" width="65.89" height="65.89" fill="#ffffff"/><polygon points="131.77,329.43 197.66000000000003,329.43 197.66000000000003,395.32" fill="#404040"/><rect x="197.66" y="329.43" width="65.89" height="65.89" fill="#e6e7ea"/><path d="M 197.66 329.43 A 65.89 65.89 0 0 0 263.55 395.32 L 263.55 329.43" fill="#fed594"/><rect x="263.54" y="329.43" width="65.89" height="65.89" fill="#9ea3af"/><rect x="263.54" y="329.43" width="65.89" height="65.89" fill="#ffffff"/><rect x="329.43" y="329.43" width="65.89" height="65.89" fill="#6b6b6b"/><rect x="329.43" y="329.43" width="65.89" height="65.89" fill="#858c9b"/><rect x="395.31" y="329.43" width="65.89" height="65.89" fill="#ffffff"/><rect x="395.31" y="329.43" width="65.89" height="65.89" fill="#fedba1"/><rect x="461.2" y="329.43" width="65.89" height="65.89" fill="#111111"/><polygon points="527.09,329.43 527.09,395.32 461.2,395.32" fill="#fedfad"/><rect x="527.09" y="329.43" width="65.89" height="65.89" fill="#ffffff"/><path d="M 527.09 395.32 A 65.89 65.89 0 0 1  592.98 329.43 L 592.98 395.32" fill="#e9e9e9"/><rect x="592.97" y="329.43" width="65.89" height="65.89" fill="#030303"/><polygon points="592.97,329.43 658.86,329.43 592.97,395.32" fill="#ffffff"/><rect x="658.86" y="329.43" width="65.89" height="65.89" fill="#ffffff"/><polygon points="658.86,329.43 724.75,329.43 724.75,395.32" fill="#e2e2e2"/><rect x="724.74" y="329.43" width="65.89" height="65.89" fill="#f1f1f1"/><path d="M 724.74 395.32 A 65.89 65.89 0 0 1  790.63 329.43 L 790.63 395.32" fill="#e7e7e7"/><rect x="0" y="395.31" width="65.89" height="65.89" fill="#ffffff"/><polygon points="65.89,395.31 65.89,461.2 0,461.2" fill="#ffffff"/><rect x="65.89" y="395.31" width="65.89" height="65.89" fill="#ffffff"/><polygon points="65.89,395.31 131.78,395.31 131.78,461.2" fill="#dfe1e4"/><rect x="131.77" y="395.31" width="65.89" height="65.89" fill="#9197a4"/><path d="M 131.77 461.2 A 65.89 65.89 0 0 0 197.66000000000003 395.31 L 131.77 395.31" fill="#ffffff"/><rect x="197.66" y="395.31" width="65.89" height="65.89" fill="#d0d0d0"/><rect x="197.66" y="395.31" width="65.89" height="65.89" fill="#2b3750"/><rect x="263.54" y="395.31" width="65.89" height="65.89" fill="#f6f6f6"/><path d="M 263.54 395.31 A 65.89 65.89 0 0 1 329.43 461.2 L 263.54 461.2" fill="#5f687b"/><rect x="329.43" y="395.31" width="65.89" height="65.89" fill="#fdc66c"/><path d="M 329.43 395.31 A 65.89 65.89 0 0 0 395.32 461.2 L 395.32 395.31" fill="#2f3b53"/><rect x="395.31" y="395.31" width="65.89" height="65.89" fill="#f8f8f8"/><path d="M 395.31 395.31 A 65.89 65.89 0 0 0 461.2 461.2 L 461.2 395.31" fill="#f6f6f6"/><rect x="461.2" y="395.31" width="65.89" height="65.89" fill="#fca81e"/><rect x="461.2" y="395.31" width="65.89" height="65.89" fill="#fcae2e"/><rect x="527.09" y="395.31" width="65.89" height="65.89" fill="#727a8b"/><path d="M 527.09 395.31 A 65.89 65.89 0 0 1 592.98 461.2 L 527.09 461.2" fill="#f9f9f9"/><rect x="592.97" y="395.31" width="65.89" height="65.89" fill="#ffffff"/><rect x="592.97" y="395.31" width="65.89" height="65.89" fill="#fdcb79"/><rect x="658.86" y="395.31" width="65.89" height="65.89" fill="#ffffff"/><path d="M 658.86 461.2 A 65.89 65.89 0 0 0 724.75 395.31 L 658.86 395.31" fill="#fdb239"/><rect x="724.74" y="395.31" width="65.89" height="65.89" fill="#dfdfdf"/><polygon points="790.63,395.31 790.63,461.2 724.74,461.2" fill="#f2f2f2"/></g></svg>